<svg width="101" height="82" viewBox="0 0 101 82" fill="none" xmlns="http://www.w3.org/2000/svg">
<path fill-rule="evenodd" clip-rule="evenodd" d="M84.3472 32.6871C84.3472 32.6871 86.7484 40.1728 76.5005 42.6955L75.7902 44.6948C75.7902 44.6948 91.4291 53.9124 96.7641 37.1186C102.315 19.6433 79.598 13.3702 74.2031 22.6886C68.9677 31.7322 80.4708 36.2236 83.6211 33.4354C86.7714 30.6471 84.3721 28.2405 84.3721 28.2405L84.3472 32.6871Z" fill="white"/>
<path fill-rule="evenodd" clip-rule="evenodd" d="M96.7641 37.1186C102.315 19.6433 79.598 13.3702 74.2031 22.6886C71.4486 27.4466 73.328 30.9433 76.1856 32.7844C74.5292 31.2533 73.7261 28.816 75.5514 25.663C79.7294 18.4467 97.3216 23.3047 93.0226 36.8378C89.432 48.1413 79.8148 44.2285 77.3592 43.0108C77.0136 43.1235 76.6526 43.2304 76.2745 43.3308L75.7901 44.6948C75.7901 44.6948 91.4291 53.9124 96.7641 37.1186Z" fill="#F8FAFA"/>
<path fill-rule="evenodd" clip-rule="evenodd" d="M85.0821 32.7415C85.102 32.8239 85.12 32.9059 85.1357 32.9871C85.1679 33.15 85.194 33.3117 85.2154 33.4741C85.2576 33.7987 85.2817 34.124 85.2867 34.45C85.2951 35.1018 85.2269 35.7566 85.0802 36.3969C84.7917 37.6797 84.1411 38.882 83.2644 39.8456C82.3908 40.8204 81.3084 41.5472 80.1842 42.1151C79.0547 42.6833 77.8642 43.0707 76.6668 43.3714L77.1565 42.9285L76.4461 44.9278V44.9282L76.1434 44.0948C76.5059 44.3002 76.9243 44.5083 77.3293 44.6941C77.7377 44.8845 78.1562 45.0554 78.5757 45.2221C79.419 45.5459 80.28 45.8217 81.1536 46.0336C82.0276 46.2436 82.913 46.3899 83.7997 46.4604C84.0211 46.4719 84.2434 46.5018 84.4644 46.4988L85.1288 46.508C85.5691 46.485 86.0109 46.4731 86.4446 46.4076C87.3128 46.2926 88.1719 46.1007 88.9734 45.7658C89.0746 45.7263 89.1776 45.6915 89.2773 45.6485L89.5692 45.5052C89.7616 45.4052 89.9643 45.3252 90.1486 45.2106L90.7038 44.8715C90.7501 44.8431 90.7972 44.8163 90.8425 44.7864L90.9727 44.688L91.2329 44.4922C91.5923 44.2466 91.9019 43.9358 92.2268 43.645C92.2666 43.6079 92.3084 43.5726 92.3471 43.5343L92.4575 43.4121L92.6785 43.1684C92.8226 43.0032 92.9809 42.8511 93.1146 42.6756C93.6579 41.9825 94.1591 41.2488 94.5748 40.4575C94.7775 40.0591 95.0028 39.6736 95.1671 39.2529L95.4338 38.6337C95.4775 38.5299 95.525 38.4283 95.5656 38.323L95.6779 38.003C95.8231 37.5758 95.9871 37.1524 96.1181 36.7221L96.307 36.075L96.4699 35.4225C96.8699 33.678 97.0105 31.8806 96.771 30.1361C96.6526 29.2648 96.4411 28.4092 96.1365 27.5885C95.8296 26.7685 95.4254 25.9869 94.9418 25.2566C93.9782 23.791 92.669 22.5584 91.1869 21.5932C89.698 20.6342 88.0316 19.9384 86.2994 19.5422C84.5694 19.1429 82.7651 19.041 81.0333 19.3054C79.3091 19.5709 77.6366 20.2135 76.3691 21.3227C76.0561 21.6013 75.7572 21.8959 75.5024 22.2258C75.3656 22.3829 75.256 22.5611 75.1334 22.7289C75.0265 22.9094 74.9104 23.0745 74.8143 23.2753L74.5112 23.8538L74.2572 24.447C74.1637 24.6424 74.1135 24.8478 74.0434 25.0485L73.9453 25.3508L73.8763 25.657C73.6882 26.4716 73.6445 27.3 73.7893 28.0904C73.9315 28.8812 74.2591 29.6295 74.7292 30.2974C75.2078 30.9606 75.8308 31.5338 76.5289 32.007C77.2262 32.4825 78.0048 32.8611 78.8198 33.1086C79.6313 33.3515 80.4831 33.5105 81.2946 33.4642C81.7019 33.4523 82.0927 33.3787 82.4395 33.2554C82.6192 33.1998 82.7697 33.1124 82.9207 33.0297C82.9866 32.9795 83.0537 32.9312 83.1226 32.8845L83.3495 32.6737L83.5793 32.4618C83.6544 32.3898 83.7146 32.3116 83.784 32.2369L83.9878 32.0109L84.1575 31.771C84.2859 31.6143 84.3575 31.4419 84.4579 31.274C84.502 31.1886 84.5257 31.0989 84.5652 31.0112L84.6189 30.8775L84.6503 30.7399C84.7514 30.3732 84.7725 29.9755 84.7058 29.5636C84.6411 29.154 84.4874 28.7284 84.2813 28.331L84.274 28.3168C84.2411 28.2532 84.266 28.1747 84.3296 28.1417C84.3736 28.1188 84.4246 28.1237 84.4629 28.1498C84.6775 28.2973 84.8587 28.4667 85.0216 28.6636C85.1917 28.8552 85.3227 29.0774 85.4495 29.3092C85.689 29.7778 85.8063 30.3342 85.776 30.8886L85.7653 31.0978C85.7553 31.166 85.7411 31.2338 85.7289 31.302C85.7009 31.4369 85.6821 31.5787 85.6384 31.7086C85.5449 31.9637 85.4629 32.2358 85.3212 32.4626L85.1239 32.8174L84.8878 33.1347C84.8066 33.2377 84.733 33.3523 84.6441 33.4458L84.3752 33.7236C84.284 33.8155 84.1981 33.9086 84.1012 33.9998C83.984 34.0933 83.8652 34.1853 83.7449 34.2753C83.497 34.4309 83.2406 34.5765 82.9774 34.6703C82.4533 34.8746 81.9176 34.9819 81.3942 35.0148C80.3424 35.0999 79.3256 34.9405 78.3527 34.6627C77.3795 34.383 76.4542 33.9542 75.602 33.3948C74.7537 32.832 73.9801 32.1285 73.3621 31.2817C72.7494 30.4326 72.3153 29.4315 72.1341 28.3866C71.9479 27.3413 72.0142 26.2704 72.2594 25.2757L72.3498 24.9014C72.3874 24.7799 72.4299 24.6604 72.4701 24.5397C72.5552 24.3014 72.6238 24.0539 72.7326 23.8282C72.8341 23.5987 72.9322 23.3669 73.0376 23.14L73.3901 22.4837C73.4989 22.2649 73.6499 22.0465 73.7847 21.8289C73.9372 21.6212 74.079 21.4043 74.2491 21.2104C74.5706 20.8066 74.9411 20.4464 75.3281 20.1112C75.7162 19.7751 76.1392 19.4882 76.5707 19.2203C77.0078 18.9629 77.46 18.7356 77.9247 18.5433C78.8546 18.1636 79.8248 17.9069 80.803 17.767C81.7812 17.6264 82.7678 17.5843 83.7453 17.6414C84.7231 17.6961 85.694 17.8295 86.6431 18.0548C88.5435 18.4954 90.367 19.261 92.0103 20.3254C93.6456 21.3959 95.1066 22.7749 96.1902 24.4309C96.7335 25.2554 97.1883 26.1413 97.5324 27.0685C97.8745 27.9965 98.1098 28.9617 98.2397 29.9376C98.5021 31.8925 98.3362 33.8711 97.8987 35.7547L97.7213 36.4582L97.517 37.1524C97.3753 37.613 97.2017 38.0597 97.045 38.5142L96.9247 38.8533C96.881 38.9651 96.83 39.0751 96.7829 39.1858L96.4948 39.8499C96.3174 40.2981 96.0725 40.7204 95.8507 41.1514C95.3963 42.0089 94.8426 42.8201 94.2326 43.5906C94.0828 43.7849 93.905 43.9588 93.7422 44.1435L93.4924 44.4163L93.3671 44.5527C93.3234 44.5964 93.2759 44.637 93.2307 44.6792C92.8621 45.0106 92.508 45.3581 92.0965 45.6413L91.7973 45.8643L91.6475 45.9754L91.4888 46.0735L90.8497 46.4612C90.6371 46.5911 90.4049 46.6854 90.1831 46.7988L89.8466 46.9612C89.7321 47.0103 89.6144 47.0509 89.4983 47.0961C88.5761 47.4754 87.5983 47.6931 86.622 47.8187C86.1327 47.89 85.6419 47.9038 85.1511 47.9268L84.4173 47.9149C84.1721 47.9164 83.9307 47.8846 83.687 47.8708C82.7161 47.7911 81.7578 47.6291 80.8199 47.4007C79.8819 47.1708 78.9654 46.8743 78.0692 46.5275C77.6228 46.3493 77.1787 46.1662 76.7431 45.9616C76.3021 45.7566 75.8844 45.5505 75.4365 45.2949C75.1434 45.1278 75.0208 44.7772 75.1308 44.4703L75.1338 44.4619V44.4615L75.8442 42.4622C75.9247 42.2358 76.1101 42.0771 76.3266 42.0212L76.3339 42.0193C77.4546 41.7377 78.5535 41.3775 79.5631 40.8687C80.5685 40.3602 81.5042 39.7249 82.2306 38.9123C82.9609 38.1069 83.4851 37.1367 83.723 36.0827C83.8437 35.557 83.9008 35.0137 83.8939 34.4696C83.8901 34.1975 83.8694 33.9259 83.8349 33.6573C83.8173 33.5228 83.7958 33.3895 83.7698 33.2592C83.7571 33.1933 83.743 33.1293 83.728 33.0661C83.7142 33.0071 83.6943 32.9339 83.6843 32.8998L83.6767 32.8737C83.5679 32.5051 84.2752 33.5542 84.6441 33.4458C85.0108 33.3373 84.8993 32.1093 85.0104 32.4745C85.0438 32.5837 85.0614 32.6553 85.0821 32.7415Z" fill="#000072"/>
<path fill-rule="evenodd" clip-rule="evenodd" d="M84.8292 44.614C83.9751 43.3523 82.9732 42.1721 81.8505 41.1093C82.359 40.7407 82.8368 40.3226 83.2644 39.8456C83.6705 39.3992 84.0284 38.9015 84.3238 38.3682C86.1331 40.2679 87.7412 41.0265 89.1585 41.0261C89.9987 41.0257 90.7712 40.7591 91.4781 40.3039C89.6543 43.2653 87.2048 44.3852 84.8292 44.614Z" fill="#F1F1F1"/>
<path fill-rule="evenodd" clip-rule="evenodd" d="M85.9434 46.4627C85.6074 45.8305 85.235 45.2132 84.8292 44.614C87.2048 44.3852 89.6543 43.2653 91.4781 40.3038C94.2698 38.5053 96.0323 33.7749 96.8588 31.002C96.9569 32.4714 96.804 33.9653 96.4699 35.4224L96.307 36.0749L96.1181 36.7221C95.9871 37.1524 95.8231 37.5758 95.6779 38.003L95.5656 38.3229C95.525 38.4283 95.4775 38.5298 95.4338 38.6337L95.1671 39.2528C95.0028 39.6735 94.7775 40.059 94.5748 40.4575C94.1591 41.2487 93.6579 41.9824 93.1146 42.6756C92.9809 42.8511 92.8226 43.0032 92.6786 43.1683L92.4575 43.412L92.3471 43.5342C92.3084 43.5725 92.2667 43.6078 92.2268 43.645C91.9019 43.9358 91.5923 44.2465 91.2329 44.4921L90.9727 44.6879L90.8425 44.7864C90.7973 44.8163 90.7501 44.8431 90.7038 44.8714L90.1486 45.2105C89.9643 45.3251 89.7616 45.4052 89.5692 45.5052L89.2773 45.6485C89.1777 45.6914 89.0746 45.7263 88.9734 45.7657C88.1719 46.1006 87.3128 46.2926 86.4446 46.4075C86.2787 46.4324 86.1113 46.4497 85.9434 46.4627Z" fill="#F0EBE7"/>
<path fill-rule="evenodd" clip-rule="evenodd" d="M86.2438 47.0515C86.1472 46.8538 86.0472 46.6576 85.9434 46.4626C86.1112 46.4496 86.2787 46.4323 86.4446 46.4074C87.3128 46.2925 88.1718 46.1005 88.9734 45.7656C89.0745 45.7262 89.1776 45.6913 89.2772 45.6484L89.5692 45.5051C89.7615 45.4051 89.9642 45.325 90.1485 45.2104L90.7037 44.8714C90.7501 44.843 90.7972 44.8162 90.8424 44.7863L90.9727 44.6878L91.2329 44.492C91.5923 44.2464 91.9019 43.9357 92.2268 43.6449C92.2666 43.6077 92.3084 43.5724 92.3471 43.5341L92.4574 43.4119L92.6785 43.1682C92.8226 43.0031 92.9808 42.851 93.1146 42.6755C93.6579 41.9823 94.159 41.2486 94.5748 40.4574C94.7774 40.0589 95.0027 39.6735 95.1671 39.2527L95.4338 38.6336C95.4775 38.5297 95.525 38.4282 95.5656 38.3228L95.6779 38.0029C95.8231 37.5757 95.9871 37.1523 96.1181 36.722L96.307 36.0748L96.4698 35.4223C96.804 33.9652 96.9568 32.4713 96.8588 31.0019C97.2331 29.7466 97.4155 28.8926 97.4155 28.8926C97.3365 42.664 91.267 46.3572 86.2438 47.0515ZM81.8505 41.1091C81.7195 40.985 81.5865 40.8624 81.452 40.7413C83.2176 39.4895 83.8069 37.8002 83.8069 37.8002C83.9809 37.9994 84.1537 38.1891 84.3238 38.368C84.0284 38.9014 83.6705 39.3991 83.2644 39.8455C82.8368 40.3225 82.359 40.7405 81.8505 41.1091Z" fill="#000072"/>
<path fill-rule="evenodd" clip-rule="evenodd" d="M81.0084 33.4721C80.2842 33.4721 79.5363 33.3227 78.8198 33.1085C78.0048 32.861 77.2262 32.4824 76.5289 32.0069C76.0653 31.6927 75.635 31.3345 75.258 30.9349C76.4626 31.6774 77.6147 31.9636 78.6746 31.9636C81.6521 31.9633 83.9027 29.7057 84.5564 28.9712C84.6238 29.1693 84.6748 29.3681 84.7058 29.5635C84.7725 29.9754 84.7514 30.3732 84.6503 30.7398L84.6189 30.8774L84.5652 31.0111C84.5257 31.0989 84.502 31.1885 84.4579 31.274C84.3575 31.4418 84.2859 31.6142 84.1575 31.7709L83.9878 32.0108L83.784 32.2368C83.7146 32.3115 83.6544 32.3897 83.5793 32.4617L83.3495 32.6736L83.1226 32.8844C83.0537 32.9311 82.9866 32.9794 82.9207 33.0296C82.7697 33.1123 82.6192 33.1997 82.4395 33.2553C82.0927 33.3786 81.7019 33.4522 81.2946 33.4641C81.1996 33.4694 81.1042 33.4721 81.0084 33.4721Z" fill="#F1F1F1"/>
<path fill-rule="evenodd" clip-rule="evenodd" d="M80.8747 34.0828C77.1224 34.0828 73.6698 29.703 73.6698 29.703C74.207 30.208 74.7373 30.6141 75.258 30.9348C75.635 31.3345 76.0653 31.6927 76.5289 32.0069C77.2262 32.4824 78.0048 32.8609 78.8198 33.1085C79.5363 33.3226 80.2842 33.4721 81.0084 33.4721C81.1042 33.4721 81.1996 33.4694 81.2946 33.464C81.7019 33.4522 82.0927 33.3786 82.4395 33.2552C82.6192 33.1997 82.7697 33.1123 82.9207 33.0295C82.9866 32.9793 83.0537 32.9311 83.1226 32.8843L83.3495 32.6736L83.5793 32.4617C83.6544 32.3897 83.7146 32.3115 83.784 32.2368L83.9878 32.0107L84.1575 31.7709C84.2859 31.6142 84.3575 31.4417 84.4579 31.2739C84.502 31.1885 84.5257 31.0988 84.5652 31.0111L84.6189 30.8773L84.6503 30.7398C84.7514 30.3731 84.7725 29.9754 84.7058 29.5635C84.6748 29.3681 84.6238 29.1692 84.5564 28.9711C84.6832 28.8286 84.7499 28.7432 84.7499 28.7432C85.6281 30.662 84.694 32.2073 84.694 32.2073C83.4694 33.5736 82.1548 34.0832 80.8747 34.0828Z" fill="#000072"/>
<path d="M84.9376 31.9961L83.3956 33.1526L83.9096 34.1806L84.8091 33.5381L85.3231 32.3816L84.9376 31.9961Z" fill="#000072"/>
<path fill-rule="evenodd" clip-rule="evenodd" d="M83.7019 47.9653C83.7019 47.9653 100.664 57.8542 99.924 65.1752C99.2186 72.1578 93.3188 70.0888 80.9601 66.2951L83.7019 47.9653Z" fill="#F6A428"/>
<path fill-rule="evenodd" clip-rule="evenodd" d="M95.202 69.8865C92.308 69.8865 88.0669 68.5814 82.1724 66.768L80.9321 66.3867L80.9881 66.2036L82.2287 66.5848C90.2221 69.0443 95.5024 70.6689 98.0163 69.001C99.0443 68.319 99.6367 67.0649 99.8286 65.166C100.554 57.9895 83.8226 48.1466 83.6537 48.0481L83.7502 47.8826C83.7928 47.9075 88.0446 50.3976 92.1509 53.7506C97.6818 58.2676 100.329 62.1149 100.019 65.1848C99.8213 67.1446 99.2006 68.445 98.1224 69.1608C97.3649 69.6635 96.3986 69.8865 95.202 69.8865Z" fill="#000072"/>
<path fill-rule="evenodd" clip-rule="evenodd" d="M83.7019 47.9653C83.7019 47.9653 100.664 57.8542 99.924 65.1752C99.2186 72.1578 93.3188 70.0888 80.9601 66.2951L83.7019 47.9653Z" fill="#F6A428"/>
<path fill-rule="evenodd" clip-rule="evenodd" d="M95.202 69.8865C92.308 69.8865 88.0669 68.5814 82.1724 66.768L80.9321 66.3867L80.9881 66.2036L82.2287 66.5848C90.2221 69.0443 95.5024 70.6689 98.0163 69.001C99.0443 68.319 99.6367 67.0649 99.8286 65.166C100.554 57.9895 83.8226 48.1466 83.6537 48.0481L83.7502 47.8826C83.7928 47.9075 88.0446 50.3976 92.1509 53.7506C97.6818 58.2676 100.329 62.1149 100.019 65.1848C99.8213 67.1446 99.2006 68.445 98.1224 69.1608C97.3649 69.6635 96.3986 69.8865 95.202 69.8865Z" fill="#000072"/>
<path fill-rule="evenodd" clip-rule="evenodd" d="M83.7019 47.9653C83.7019 47.9653 100.664 57.8542 99.924 65.1752C99.2186 72.1578 93.3188 70.0888 80.9601 66.2951L83.7019 47.9653Z" fill="white"/>
<path fill-rule="evenodd" clip-rule="evenodd" d="M93.6717 55.1699C93.743 55.8998 93.7805 56.6393 93.7805 57.3876C93.7805 61.6679 92.5901 65.6699 90.5229 69.0816C96.4408 70.5065 99.4344 70.0218 99.9241 65.1753C100.246 61.984 97.2052 58.3053 93.6717 55.1699Z" fill="#FAFBFB"/>
<path fill-rule="evenodd" clip-rule="evenodd" d="M90.8953 68.4436C89.8501 68.185 88.7719 67.8727 87.7136 67.5298C87.8765 67.0432 88.0025 66.5458 88.086 66.042C89.48 66.3757 90.7099 66.6026 91.7827 66.6899C91.5118 67.2888 91.2157 67.8739 90.8953 68.4436Z" fill="#F1F1F1"/>
<path fill-rule="evenodd" clip-rule="evenodd" d="M95.8419 69.1877C94.4767 69.1877 92.7357 68.8988 90.8954 68.4436C91.2157 67.8738 91.5119 67.2888 91.7828 66.6899C92.1073 66.7163 92.4176 66.7297 92.7134 66.7297C95.5657 66.7297 97.0918 65.4607 97.4289 62.1211C97.4707 61.7062 97.4558 61.2828 97.3899 60.8533C98.9746 63.4281 99.7831 66.1251 98.4784 68.2957C98.0995 68.926 97.1412 69.1877 95.8419 69.1877Z" fill="#F0EBE7"/>
<path fill-rule="evenodd" clip-rule="evenodd" d="M95.7905 70.7727C94.3307 70.7727 92.5107 70.4911 90.3175 69.929C86.6787 68.996 83.3763 67.6282 83.2372 67.5703C82.833 67.4021 82.6418 66.9381 82.81 66.5339C82.9778 66.1296 83.4418 65.9388 83.8464 66.1063C89.1439 68.3094 97.186 70.4455 98.4784 68.2956C100.611 64.7484 97.0994 59.7957 93.7778 56.2653C90.0229 52.2739 85.6392 49.1612 85.5951 49.1301C85.2377 48.8773 85.1526 48.3826 85.4051 48.0251C85.658 47.6673 86.1522 47.5822 86.5101 47.8347C87.2588 48.3634 104.788 60.8781 99.8374 69.1129C99.1715 70.2206 97.8343 70.7727 95.7905 70.7727Z" fill="#000072"/>
<path fill-rule="evenodd" clip-rule="evenodd" d="M33.1973 71.4831C33.1973 71.4831 9.16773 75.1342 6.29912 68.0807C3.37778 60.8977 5.22755 60.7341 18.6838 57.7102C18.6838 57.7102 35.2698 61.1831 33.1973 71.4831Z" fill="white"/>
<path fill-rule="evenodd" clip-rule="evenodd" d="M16.437 72.3395C11.6473 71.9762 7.41697 70.8475 6.31421 68.1362C3.66936 61.6329 4.93577 60.8831 15.1852 58.5554C16.5048 59.8378 17.5098 61.4774 18.0286 63.3809C18.8995 66.5783 18.2156 69.8325 16.437 72.3395Z" fill="#FAFBFB"/>
<path fill-rule="evenodd" clip-rule="evenodd" d="M20.4896 73.2208C11.8919 73.2208 6.87137 71.5923 5.56469 68.3796C4.52538 65.8239 3.80378 63.7327 4.72807 62.0157C5.93041 59.7823 9.33192 58.7669 18.9436 56.8496C19.3727 56.7642 19.7903 57.0427 19.8762 57.4723C19.9616 57.9018 19.683 58.319 19.2535 58.4049C10.9018 60.0708 7.02417 61.0958 6.12452 62.7675C5.58316 63.7729 6.02639 65.3055 7.03367 67.7822C9.19268 73.0912 26.5661 71.6881 33.0782 70.6992C33.5108 70.6321 33.9154 70.931 33.9809 71.364C34.0468 71.7969 33.7491 72.2012 33.3161 72.2671C33.2556 72.2763 27.1783 73.189 20.8279 73.22C20.7145 73.2204 20.6015 73.2208 20.4896 73.2208Z" fill="#000072"/>
<path fill-rule="evenodd" clip-rule="evenodd" d="M20.5559 71.6385C19.3394 71.6385 18.1278 71.6055 16.9577 71.5304C17.4726 70.6465 17.8604 69.6886 18.1045 68.687C18.7083 68.705 19.3148 68.7131 19.9191 68.7131C20.2639 68.7131 20.6072 68.7104 20.9494 68.7054C21.4927 69.7012 22.1303 70.6714 22.8541 71.6017C22.0916 71.6254 21.3226 71.6385 20.5559 71.6385Z" fill="#EEEEEE"/>
<path fill-rule="evenodd" clip-rule="evenodd" d="M16.9577 71.5304C12.1395 71.2215 8.01487 70.1951 7.03368 67.7823C6.58723 66.6846 6.25158 65.7723 6.06334 65.009C7.78333 67.6402 12.8498 68.5314 18.1044 68.6869C17.8604 69.6885 17.4726 70.6464 16.9577 71.5304Z" fill="#EEEEEE"/>
<path fill-rule="evenodd" clip-rule="evenodd" d="M20.4927 72.4281C14.2273 72.4281 7.70842 71.5461 6.29914 68.0808C5.35473 65.7589 4.91004 64.1707 5.19381 62.9822C5.3473 63.4128 5.52466 63.8722 5.72551 64.3661C5.81705 64.5911 5.93012 64.8052 6.06334 65.0091C6.25159 65.7723 6.58723 66.6846 7.03369 67.7824C8.01487 70.1951 12.1395 71.2216 16.9577 71.5304C18.1278 71.6055 19.3394 71.6384 20.5559 71.6384C21.3226 71.6384 22.0916 71.6254 22.8541 71.6017C23.0548 71.8599 23.2621 72.1147 23.4759 72.3664C22.5031 72.4051 21.5007 72.4281 20.4927 72.4281Z" fill="#000072"/>
<path fill-rule="evenodd" clip-rule="evenodd" d="M9.36529 66.5838C9.21004 66.8274 8.95915 67.0114 8.69879 67.16C8.43488 67.3075 8.14716 67.4206 7.85324 67.5014C7.55814 67.5884 7.25717 67.6413 6.95217 67.6846C6.80152 67.6999 6.64803 67.7179 6.49492 67.7302L6.03601 67.7528C5.63209 67.7727 5.28843 67.4616 5.26839 67.0577C5.24836 66.6539 5.55952 66.3102 5.96344 66.2903C6.06908 66.2849 6.17065 66.3025 6.26338 66.3381L6.27928 66.3447L6.64806 66.4891L7.02344 66.6152C7.2751 66.6876 7.53308 66.7539 7.79374 66.7895C8.05582 66.8305 8.32115 66.8435 8.58802 66.8202C8.85275 66.7941 9.12732 66.7397 9.36529 66.5838Z" fill="#000072"/>
<path fill-rule="evenodd" clip-rule="evenodd" d="M8.70727 63.5468C8.5181 63.7188 8.30457 63.8701 8.0792 64.0065C7.85348 64.1437 7.61316 64.2648 7.35936 64.3652C7.10602 64.4671 6.83934 64.5518 6.56132 64.6092C6.28338 64.6732 5.99513 64.7008 5.69907 64.7165L5.6783 64.7177C5.27143 64.7391 4.92413 64.4269 4.90252 64.02C4.88099 63.613 5.1933 63.2659 5.60018 63.2444C5.72075 63.2379 5.83915 63.2625 5.94233 63.3084C6.13656 63.3958 6.34246 63.482 6.56098 63.5372C6.77895 63.5992 7.00797 63.6383 7.24376 63.6602C7.47986 63.6835 7.72263 63.6855 7.96789 63.6671C8.21338 63.6491 8.4617 63.6138 8.70727 63.5468Z" fill="#000072"/>
<path fill-rule="evenodd" clip-rule="evenodd" d="M87.0365 54.2618C87.0365 61.4368 82.7004 67.6179 76.4576 70.4249C76.4576 70.4249 71.4517 75.1488 62.8073 78.07C34.9886 87.4723 19.7068 72.3399 19.5673 60.8801C19.5639 60.8253 19.5639 60.7724 19.5639 60.7195C19.5639 56.1596 21.0616 51.943 23.6008 48.516C26.1396 45.0906 29.7202 42.4529 33.8855 41.0521C33.8855 41.0521 33.9031 41.0468 33.9384 41.0345C33.9614 41.0272 33.9859 41.0184 34.0108 41.0115C34.0951 40.9831 34.2219 40.9429 34.3893 40.89C34.4192 40.8812 34.451 40.8705 34.4809 40.8617C37.1381 40.0371 48.4431 36.7861 62.61 36.4408C64.6572 36.3899 66.7645 36.4002 68.9144 36.4883C78.9224 36.4883 87.0365 44.4457 87.0365 54.2618Z" fill="white"/>
<path fill-rule="evenodd" clip-rule="evenodd" d="M83.948 46.1562C80.5865 41.8606 75.4315 38.5455 69.8697 38.5455C68.0366 38.4674 66.3281 38.3432 64.5947 38.3432C64.3104 38.3432 64.0254 38.3467 63.7392 38.354C63.5832 38.3578 63.4269 38.3628 63.2717 38.3681C63.3092 37.9865 63.3319 37.6033 63.3399 37.2194C63.9085 37.2095 64.4825 37.2041 65.0591 37.2041C66.3159 37.2041 67.5918 37.2286 68.8815 37.2815C68.8922 37.2819 68.9029 37.2819 68.9137 37.2819C74.8227 37.2819 80.6896 40.8636 83.948 46.1562Z" fill="#F1F1F1"/>
<path fill-rule="evenodd" clip-rule="evenodd" d="M87.7749 62.8804C87.7749 69.6056 82.3233 75.0571 75.5986 75.0571C68.8734 75.0571 63.4219 69.6056 63.4219 62.8804C63.4219 56.1556 68.8734 50.7041 75.5986 50.7041C82.3233 50.7041 87.7749 56.1556 87.7749 62.8804Z" fill="white"/>
<path fill-rule="evenodd" clip-rule="evenodd" d="M62.808 78.07C67.4688 76.4949 68.852 75.8148 71.1827 74.2147C70.8697 74.1216 70.5727 74.0086 70.2945 73.8852C68.4933 73.0855 67.2515 72.3855 65.3534 72.9154C32.9349 81.9652 42.8996 55.9339 42.8996 55.9339C42.8996 55.9339 28.6079 49.0471 21.277 52.5288C20.1765 55.0423 19.5646 57.8106 19.5646 60.7196C19.5646 72.1989 34.8595 87.5156 62.808 78.07Z" fill="#FAFBFB"/>
<path fill-rule="evenodd" clip-rule="evenodd" d="M46.3615 81.8149C37.2259 81.8149 31.1483 78.7401 27.7891 76.3293C22.2269 72.338 18.7719 66.3565 18.7719 60.7195C18.7719 51.5054 24.7289 43.3089 33.5997 40.3126C33.61 40.3084 33.6208 40.3046 33.6311 40.3011L33.7579 40.2593C33.8503 40.2295 33.9809 40.1873 34.153 40.1337L34.2469 40.1042C37.0136 39.2455 51.6908 34.9982 68.9302 35.696C72.843 35.6998 76.6933 37.0485 80.0651 39.5969C83.2307 41.9893 85.6952 45.2687 87.0055 48.8317C87.1565 49.2428 86.9462 49.6984 86.535 49.8497C86.1239 50.0003 85.6683 49.79 85.5174 49.3792C82.9395 42.3694 75.9565 37.2818 68.9137 37.2818C68.903 37.2818 68.8922 37.2818 68.8815 37.2815C51.8954 36.5876 37.4408 40.7732 34.7158 41.6192L34.6235 41.6479C34.463 41.6981 34.3388 41.7379 34.2564 41.7648L34.1672 41.7943C34.1576 41.7977 34.148 41.8012 34.1384 41.8042C25.8956 44.5745 20.3574 52.1759 20.3574 60.7195C20.3574 65.8546 23.5595 71.3425 28.7137 75.0407C33.566 78.5229 44.4143 83.4495 62.5541 77.319C65.2162 76.419 67.7991 75.253 70.2314 73.8533C70.6107 73.6349 71.0954 73.7652 71.3138 74.1453C71.5326 74.5246 71.4019 75.0093 71.0222 75.2277C68.5006 76.6791 65.8224 77.8884 63.0617 78.8213C56.6439 80.99 51.0923 81.8149 46.3615 81.8149Z" fill="#000072"/>
<path fill-rule="evenodd" clip-rule="evenodd" d="M88.0393 62.8804C88.2615 63.9054 88.2515 64.9775 88.0879 66.0281C87.9159 67.0787 87.5588 68.1029 87.0653 69.0539C86.5622 70.0014 85.9062 70.8608 85.1775 71.6398C84.4399 72.4111 83.6345 73.1207 82.7402 73.7054C80.9608 74.884 78.8818 75.6124 76.7549 75.7963C75.6763 75.8836 74.6575 75.8537 73.6111 75.7668C72.5678 75.6683 71.5072 75.4955 70.457 75.0813C70.0497 74.9204 69.8497 74.4602 70.0102 74.0525C70.1712 73.6452 70.6317 73.4452 71.039 73.6061L71.0405 73.6069L71.0497 73.6104C71.8678 73.9353 72.8054 74.1004 73.7537 74.1874C74.7031 74.2682 75.6959 74.2931 76.6151 74.2165C78.4826 74.0552 80.303 73.4169 81.8659 72.3823C82.649 71.8685 83.3655 71.2509 83.9904 70.5539C84.61 69.8504 85.1242 69.0646 85.5779 68.2515C86.0254 67.4335 86.4112 66.5802 86.7258 65.6859C87.0434 64.7913 87.2806 63.8602 87.5105 62.8804L87.5117 62.8762C87.5458 62.7306 87.6914 62.6406 87.8366 62.6747C87.9416 62.6992 88.0178 62.782 88.0393 62.8804Z" fill="#000072"/>
<path fill-rule="evenodd" clip-rule="evenodd" d="M58.2121 71.0214C58.2121 71.0214 34.6821 77.1125 31.1069 70.3896C27.4657 63.5434 29.2892 63.1912 42.3652 58.8064C42.3652 58.8064 59.2198 60.5636 58.2121 71.0214Z" fill="white"/>
<path fill-rule="evenodd" clip-rule="evenodd" d="M41.6272 73.5885C36.8255 73.7173 32.5019 73.0276 31.1276 70.4432C27.8309 64.2445 29.0141 63.3694 38.9715 60.0049C40.4153 61.1455 41.5831 62.6736 42.2935 64.5142C43.4874 67.6056 43.1399 70.9126 41.6272 73.5885Z" fill="#FAFBFB"/>
<path fill-rule="evenodd" clip-rule="evenodd" d="M58.2681 71.2378C57.3554 71.8241 56.3722 72.1406 55.376 72.3915C54.3817 72.6532 53.3683 72.8279 52.3537 72.9877C51.3383 73.1444 50.3268 73.3214 49.3099 73.4728C48.2937 73.6261 47.2734 73.7602 46.25 73.8732C44.2028 74.0981 42.1399 74.241 40.0605 74.218C39.0206 74.2016 37.9765 74.1468 36.9308 74.0104C35.8864 73.8751 34.8373 73.6617 33.8097 73.2893C33.2966 73.1019 32.7905 72.8655 32.3088 72.5636C31.8284 72.2613 31.372 71.8858 30.9938 71.4229C30.9019 71.3053 30.8149 71.1827 30.7272 71.0616C30.6513 70.9344 30.5685 70.7995 30.5003 70.6769L30.1421 69.9888C29.9057 69.527 29.6773 69.055 29.4654 68.5669C29.2581 68.0749 29.0647 67.5661 28.9302 67.0132C28.798 66.4641 28.7271 65.8487 28.8466 65.2188C28.9604 64.5885 29.2827 64.0012 29.6777 63.554C30.0743 63.1042 30.5233 62.7456 30.9835 62.4509C31.9042 61.8517 32.864 61.4233 33.8238 61.0187C34.7856 60.621 35.7542 60.2654 36.7251 59.9282C37.2109 59.7619 37.6972 59.5945 38.1834 59.4343C38.6704 59.273 39.1478 59.0853 39.6313 58.9167C40.1141 58.7446 40.6092 58.6148 41.1134 58.514C41.6211 58.4243 42.1422 58.3795 42.7035 58.4676C42.8391 58.4891 42.9318 58.6163 42.9108 58.7523C42.9016 58.8086 42.8748 58.8577 42.8361 58.8941L42.8353 58.8948C42.4226 59.286 41.969 59.5416 41.5031 59.7573C41.0352 59.9646 40.5555 60.1367 40.0681 60.2796C39.5796 60.4206 39.0869 60.5482 38.6056 60.7087C38.1225 60.8647 37.6447 61.0313 37.1653 61.1949C36.2094 61.5267 35.2618 61.875 34.3384 62.257C33.4204 62.6425 32.5096 63.0555 31.7195 63.572C31.3203 63.8257 30.9693 64.1173 30.6915 64.4318C30.4153 64.7491 30.236 65.0893 30.1651 65.4652C30.0149 66.22 30.3241 67.1522 30.6977 68.0385C30.8923 68.486 31.108 68.9328 31.3364 69.3791L31.6847 70.0481L31.8464 70.3225L32.0341 70.5765C32.5721 71.2344 33.387 71.7061 34.2733 72.031C35.1653 72.3544 36.1266 72.5547 37.1037 72.6804C38.0815 72.8084 39.0784 72.8613 40.0781 72.877C42.0793 72.8996 44.0951 72.7613 46.1028 72.5406C47.1071 72.4295 48.1102 72.2973 49.111 72.1467C50.1118 71.9965 51.1122 71.834 52.1042 71.6244C53.0958 71.416 54.0844 71.1945 55.0848 71.0294C56.0833 70.8528 57.0906 70.7187 58.1558 70.8053L58.1596 70.8056C58.2895 70.816 58.3857 70.9294 58.3753 71.0589C58.3692 71.1344 58.3271 71.1995 58.2681 71.2378Z" fill="#000072"/>
<path fill-rule="evenodd" clip-rule="evenodd" d="M34.1234 68.8501C33.9939 69.1087 33.7633 69.3172 33.5196 69.4915C33.2721 69.6655 32.9973 69.8072 32.7134 69.9176C32.4287 70.0344 32.1345 70.1176 31.8356 70.1919C31.6873 70.2229 31.5367 70.2563 31.3854 70.2843L30.9314 70.3536C30.5317 70.4149 30.1578 70.1406 30.0965 69.7409C30.0352 69.3413 30.3095 68.9673 30.7095 68.906C30.8141 68.8903 30.9168 68.8972 31.0126 68.9233L31.0291 68.9279L31.4107 69.034L31.7973 69.121C32.0548 69.1673 32.3184 69.2068 32.5812 69.2156C32.846 69.2298 33.1115 69.2152 33.3744 69.1651C33.6353 69.1118 33.9027 69.0294 34.1234 68.8501Z" fill="#000072"/>
<path fill-rule="evenodd" clip-rule="evenodd" d="M33.1583 65.8965C32.9878 66.0869 32.7909 66.2593 32.5805 66.4183C32.3702 66.5777 32.1433 66.723 31.9012 66.8486C31.6594 66.9758 31.4031 67.0877 31.1322 67.1732C30.8624 67.2651 30.5785 67.3222 30.2854 67.3682L30.2651 67.3713C29.8624 67.4345 29.485 67.1594 29.4218 66.7567C29.3589 66.3544 29.634 65.9769 30.0364 65.9137C30.1559 65.8949 30.2762 65.9072 30.3835 65.9425C30.5854 66.0095 30.7992 66.0743 31.0222 66.1068C31.2452 66.1463 31.477 66.1616 31.7138 66.1593C31.9514 66.1582 32.1928 66.1352 32.4349 66.0923C32.6775 66.049 32.9208 65.9884 33.1583 65.8965Z" fill="#000072"/>
<path fill-rule="evenodd" clip-rule="evenodd" d="M53.5694 74.8261C50.9774 74.8265 48.9121 74.4303 47.2757 73.7529C47.9554 73.6682 48.6336 73.5747 49.3099 73.4728C50.3268 73.3214 51.3383 73.1444 52.3537 72.9877C53.3683 72.8279 54.3817 72.6532 55.376 72.3915C56.3722 72.1406 57.3554 71.8241 58.2681 71.2378C58.3271 71.1995 58.3692 71.1344 58.3753 71.0589C58.3838 70.9539 58.3221 70.8593 58.229 70.8217C58.9244 61.6014 45.6124 59.255 42.859 58.8692C42.8855 58.8362 42.9035 58.7964 42.9108 58.7523C42.9318 58.6163 42.8391 58.4891 42.7035 58.4676C42.5176 58.4385 42.336 58.4239 42.1582 58.4205C42.3506 57.6308 42.5449 56.9863 42.6859 56.5518C45.3679 55.9537 47.8282 55.1506 50.0559 54.146C50.8708 54.2893 51.7555 54.3655 52.7138 54.3655C58.483 54.3655 61.7234 56.5269 63.9618 59.2837C63.6112 60.4206 63.4219 61.6287 63.4219 62.8804C63.4219 67.6595 66.1749 71.7953 70.1811 73.7889C70.1712 73.7992 70.1612 73.81 70.1513 73.8211C68.8562 73.2414 67.8424 72.7306 66.6354 72.7306C66.235 72.7306 65.8136 72.7869 65.3534 72.9153C60.5532 74.2552 56.681 74.8261 53.5694 74.8261Z" fill="#F1F1F1"/>
<path fill-rule="evenodd" clip-rule="evenodd" d="M75.4388 74.2631C74.8778 74.2631 74.3085 74.2347 73.7537 74.1876C72.8054 74.1006 71.8678 73.9355 71.0497 73.6105L71.0405 73.6071L71.039 73.6063C70.9432 73.5688 70.8451 73.5508 70.7482 73.5508C70.5352 73.5508 70.3302 73.637 70.1811 73.7891C66.1748 71.7955 63.4219 67.6597 63.4219 62.8806C63.4219 61.6289 63.6111 60.4208 63.9617 59.2839C67.9029 64.1374 68.7393 70.8369 74.8077 70.8369C83.4797 70.8369 83.7349 63.2933 86.7806 63.2933C86.9718 63.2933 87.1741 63.3232 87.3898 63.3864C87.1959 64.1822 86.9883 64.9466 86.7258 65.6861C86.4112 66.5804 86.0254 67.4337 85.5779 68.2517C85.1242 69.0648 84.61 69.8506 83.9905 70.5541C83.3655 71.2511 82.649 71.8687 81.8659 72.3825C80.303 73.417 78.4826 74.0554 76.6151 74.2167C76.2327 74.2485 75.838 74.2631 75.4388 74.2631Z" fill="#F1F1F1"/>
<path fill-rule="evenodd" clip-rule="evenodd" d="M46.3615 80.2291C37.6573 80.2291 31.8954 77.3244 28.7137 75.0408C23.5594 71.3426 20.3574 65.8547 20.3574 60.7196C20.3574 59.5092 20.4685 58.318 20.6831 57.1566C23.4069 57.6325 26.3496 57.8712 29.4976 57.8712C30.4907 57.8712 31.505 57.8475 32.5387 57.7999C36.2036 57.6593 39.5922 57.2421 42.6858 56.552C42.5448 56.9865 42.3506 57.631 42.1582 58.4207C42.1326 58.4203 42.1065 58.4199 42.0808 58.4199C41.749 58.4199 41.4287 58.4586 41.1134 58.5141C40.6091 58.6149 40.1141 58.7448 39.6313 58.9168C39.1478 59.0854 38.6704 59.2732 38.1834 59.4345C37.6971 59.5946 37.2109 59.7621 36.7251 59.9284C35.7542 60.2656 34.7855 60.6211 33.8238 61.0188C32.864 61.4234 31.9042 61.8518 30.9835 62.4511C30.5233 62.7457 30.0743 63.1044 29.6777 63.5542C29.2826 64.0013 28.9604 64.5887 28.8466 65.219C28.7271 65.8489 28.798 66.4643 28.9301 67.0133C29.0646 67.5662 29.2581 68.075 29.4654 68.567C29.6773 69.0552 29.9057 69.5272 30.1421 69.9889L30.5003 70.6771C30.5685 70.7997 30.6513 70.9345 30.7271 71.0617C30.8149 71.1828 30.9019 71.3054 30.9938 71.4231C31.372 71.8859 31.8283 72.2614 32.3088 72.5637C32.7904 72.8656 33.2966 73.1021 33.8096 73.2894C34.8373 73.6618 35.8863 73.8753 36.9308 74.0105C37.9765 74.1469 39.0206 74.2017 40.0605 74.2182C40.2084 74.2197 40.3563 74.2205 40.5038 74.2205C42.4333 74.2205 44.3484 74.0822 46.25 73.8733C46.5921 73.8358 46.9343 73.7956 47.2757 73.753C48.9121 74.4305 50.9773 74.8266 53.5694 74.8263C56.681 74.8263 60.5532 74.2554 65.3534 72.9155C65.8135 72.7871 66.235 72.7308 66.6354 72.7308C67.8424 72.7308 68.8562 73.2415 70.1513 73.8212C70.1164 73.8611 70.085 73.9052 70.0581 73.9527C67.6768 75.3083 65.1534 76.4405 62.554 77.3191C56.3097 79.4295 50.9306 80.2291 46.3615 80.2291Z" fill="#EEEEEE"/>
<path fill-rule="evenodd" clip-rule="evenodd" d="M46.3109 81.0134C46.3059 81.0134 46.3013 81.013 46.2963 81.013C46.1898 81.013 46.0852 81.0095 45.9791 81.0088C45.7526 81.0065 45.5254 81.0053 45.3016 80.9992C45.1825 80.9961 45.0656 80.99 44.9476 80.9858C44.7265 80.9777 44.5054 80.9708 44.287 80.959C44.2571 80.9574 44.2276 80.9555 44.1978 80.954C44.1104 80.949 44.0246 80.9417 43.9376 80.9363C43.7219 80.9229 43.5058 80.9103 43.2927 80.8934C43.1759 80.8842 43.0613 80.872 42.9452 80.8616C42.7353 80.8429 42.5245 80.8245 42.3172 80.8026C42.2023 80.7904 42.09 80.775 41.9758 80.7616C41.7705 80.7379 41.5647 80.7145 41.362 80.6873C41.2467 80.6716 41.134 80.6536 41.0195 80.6371C40.821 80.608 40.6221 80.58 40.4267 80.5482C40.3118 80.5298 40.1995 80.5084 40.0857 80.4884C39.893 80.4551 39.7003 80.4225 39.5102 80.3861C39.3972 80.3647 39.2865 80.3402 39.1746 80.3175C38.9868 80.2796 38.7987 80.2424 38.6136 80.2015C38.6021 80.1992 38.5903 80.1969 38.5788 80.1942C38.478 80.1719 38.3803 80.1467 38.2803 80.1237C38.0987 80.0815 37.9167 80.0401 37.7377 79.9953C37.6259 79.9673 37.5163 79.9367 37.4052 79.9076C37.2297 79.8616 37.0538 79.8164 36.881 79.7677C36.7845 79.7409 36.6898 79.7114 36.594 79.6834C36.5798 79.6796 36.5661 79.6754 36.5519 79.6712C36.3821 79.6213 36.212 79.5723 36.0446 79.5198C35.9338 79.4853 35.8258 79.4485 35.7166 79.4133C35.553 79.36 35.389 79.3075 35.2281 79.2524C35.1185 79.2144 35.0108 79.1746 34.9024 79.1359C34.7449 79.0796 34.5867 79.024 34.4315 78.9654C34.3231 78.9244 34.2169 78.8815 34.1096 78.8397C33.9575 78.7803 33.805 78.7213 33.6552 78.66C33.5475 78.616 33.4422 78.5696 33.3357 78.5244C33.1897 78.4623 33.0429 78.401 32.8989 78.337C32.792 78.2891 32.6874 78.2397 32.5816 78.191C32.4418 78.1267 32.3011 78.0627 32.1632 77.9964C32.0571 77.9454 31.9536 77.8926 31.849 77.8408C31.7145 77.7742 31.5797 77.7079 31.4475 77.6397C31.4325 77.6316 31.4168 77.6243 31.4019 77.6167C31.3122 77.5699 31.2252 77.5213 31.1367 77.4738C31.008 77.4052 30.8789 77.337 30.7524 77.2669C30.7367 77.258 30.721 77.25 30.7057 77.2416C30.6172 77.1921 30.5317 77.1408 30.4444 77.0906C30.3218 77.0205 30.1984 76.9508 30.0777 76.8787C29.975 76.8178 29.8746 76.755 29.7735 76.6925C29.6562 76.6209 29.5382 76.5496 29.4229 76.476C29.4072 76.4661 29.3903 76.4565 29.3746 76.4461C29.2895 76.3917 29.2072 76.3354 29.1232 76.2802C29.0114 76.207 28.8991 76.1342 28.7895 76.0599C28.6891 75.9917 28.591 75.922 28.4926 75.8526C28.3868 75.7787 28.2803 75.7051 28.1761 75.63C28.0772 75.5584 27.9807 75.4852 27.8833 75.4128C27.783 75.3377 27.6822 75.2633 27.5837 75.1879C27.5669 75.1748 27.5492 75.1626 27.5328 75.1495C27.4523 75.0871 27.3749 75.0231 27.2956 74.9603C27.2006 74.8848 27.1048 74.8097 27.0117 74.7334C26.9155 74.6549 26.822 74.5748 26.7277 74.4951C26.6385 74.4196 26.5484 74.3445 26.4603 74.2679C26.366 74.1855 26.2741 74.102 26.1814 74.0188C26.0975 73.9434 26.0124 73.8679 25.93 73.7916C25.8373 73.7058 25.7472 73.6188 25.6564 73.5318C25.5775 73.4564 25.4978 73.3817 25.4208 73.3054C25.4036 73.2885 25.3852 73.2721 25.3679 73.2552C25.2944 73.182 25.2239 73.1077 25.1514 73.0341C25.0783 72.9598 25.0039 72.8855 24.9323 72.8104C24.843 72.7169 24.756 72.6222 24.669 72.528C24.6005 72.454 24.5315 72.3805 24.4644 72.3061C24.4472 72.2866 24.4288 72.2678 24.4116 72.2487C24.3418 72.1709 24.2759 72.0916 24.2077 72.0134C24.1441 71.9402 24.0801 71.8674 24.0177 71.7939C24.0004 71.7735 23.982 71.7532 23.9648 71.7329C23.8974 71.6525 23.833 71.5705 23.7671 71.4896C23.7089 71.418 23.6495 71.3467 23.5924 71.2747C23.5092 71.1701 23.4292 71.0647 23.3487 70.9593C23.295 70.8888 23.2403 70.8187 23.1878 70.7482C23.1705 70.7252 23.1525 70.7026 23.1353 70.6796C23.0724 70.5942 23.013 70.508 22.9517 70.4222C22.9023 70.3536 22.8525 70.285 22.8042 70.216C22.7264 70.1041 22.6517 69.9919 22.5766 69.8796C22.5318 69.8126 22.4858 69.7455 22.4418 69.6777C22.367 69.5627 22.295 69.447 22.223 69.3317C22.1824 69.2662 22.141 69.201 22.1011 69.1355C22.0291 69.0167 21.9598 68.8972 21.8908 68.7776C21.8544 68.7148 21.8172 68.652 21.7816 68.5891C21.7655 68.5608 21.7482 68.5328 21.7325 68.5045C21.68 68.4102 21.631 68.3152 21.5804 68.2205C21.5482 68.16 21.5149 68.0995 21.4831 68.0389C21.4176 67.9129 21.3547 67.7868 21.2923 67.6604C21.2636 67.6021 21.2341 67.5439 21.2061 67.4856C21.1911 67.4546 21.175 67.424 21.1605 67.3929C21.1137 67.2944 21.0708 67.1956 21.026 67.0967C21.0011 67.0416 20.9754 66.9864 20.9509 66.9308C20.8923 66.7983 20.8367 66.6649 20.7819 66.532C20.7605 66.4795 20.7379 66.4266 20.7168 66.3741C20.6624 66.2381 20.6107 66.1017 20.5601 65.9657C20.5417 65.9159 20.5221 65.8664 20.5041 65.8166C20.4539 65.6775 20.4068 65.5381 20.3605 65.399C20.3447 65.3522 20.3283 65.3055 20.3133 65.2584C20.2673 65.1162 20.2244 64.9744 20.1831 64.8323C20.17 64.7886 20.1562 64.7449 20.144 64.7009C20.1026 64.556 20.0647 64.4108 20.0275 64.266C20.0171 64.2257 20.0064 64.1851 19.9965 64.1445C19.9601 63.997 19.9267 63.8495 19.8949 63.7024C19.8869 63.6648 19.8781 63.6269 19.8704 63.5893C19.839 63.4391 19.811 63.2897 19.7846 63.1407C19.7784 63.1058 19.7719 63.0713 19.7658 63.0364C19.7401 62.8839 19.7175 62.7322 19.6968 62.5805C19.6926 62.5494 19.6876 62.518 19.6834 62.487C19.6635 62.3326 19.6466 62.1785 19.6317 62.0253C19.629 61.9969 19.6256 61.9686 19.6229 61.9402C19.6087 61.7843 19.598 61.6291 19.5892 61.4739C19.5876 61.4486 19.5857 61.4233 19.5842 61.3981C19.5761 61.2406 19.5715 61.0839 19.5689 60.9275C19.5689 60.9118 19.5677 60.8957 19.5673 60.88C19.5639 60.8252 19.5639 60.7724 19.5639 60.7195C19.5639 60.6842 19.5658 60.6497 19.5662 60.6145C19.5669 60.4107 19.5715 60.2072 19.5784 60.0049C19.5815 59.9206 19.5846 59.8363 19.5884 59.7524C19.5987 59.5298 19.6118 59.3076 19.6294 59.0865C19.6355 59.0091 19.644 58.9324 19.6508 58.8554C19.6654 58.6926 19.6823 58.5301 19.701 58.3684C19.7118 58.2746 19.7221 58.1807 19.734 58.0876C19.7604 57.8837 19.7896 57.6811 19.8217 57.4795C19.8386 57.3738 19.8578 57.2692 19.8761 57.1642C19.885 57.1136 19.8942 57.063 19.9034 57.0125C20.1612 57.0626 20.421 57.1105 20.6831 57.1565C20.4685 58.3179 20.3574 59.5091 20.3574 60.7195C20.3574 65.8545 23.5594 71.3425 28.7136 75.0407C31.8954 77.3243 37.6573 80.229 46.3614 80.229C50.9306 80.229 56.3097 79.4294 62.554 77.319C65.1533 76.4404 67.6768 75.3082 70.0581 73.9526C70.0401 73.9844 70.024 74.0177 70.0102 74.0526C69.8941 74.3476 69.9666 74.6702 70.17 74.8871C68.3558 76.0419 66.7599 76.7343 62.808 78.07C62.0502 78.3263 61.3034 78.5604 60.5643 78.7807C60.4543 78.8137 60.3428 78.8493 60.2336 78.8811C60.0014 78.9489 59.7727 79.011 59.5424 79.075C59.352 79.1282 59.16 79.1846 58.9711 79.2351C58.7772 79.2872 58.5864 79.334 58.3941 79.3838C58.1719 79.4409 57.9481 79.5007 57.7274 79.5551C57.5573 79.5968 57.3895 79.6336 57.2201 79.6738C56.9806 79.7302 56.7396 79.7884 56.5024 79.8413C56.3473 79.8758 56.1948 79.9056 56.0407 79.9382C55.7925 79.9911 55.543 80.0455 55.2966 80.0942C55.1503 80.1233 55.0062 80.1482 54.8602 80.1758C54.6093 80.2233 54.3575 80.2719 54.1092 80.3152C53.9721 80.3394 53.8372 80.3593 53.7008 80.3819C53.4472 80.4237 53.1924 80.467 52.9414 80.5045C52.808 80.5244 52.6774 80.5405 52.5448 80.5593C52.2935 80.595 52.0414 80.6317 51.7923 80.6628C51.6624 80.6792 51.5348 80.6919 51.4053 80.7072C51.157 80.7363 50.908 80.7662 50.6624 80.7907C50.5348 80.8038 50.4099 80.813 50.283 80.8248C50.0386 80.8475 49.7938 80.8708 49.552 80.8892C49.4263 80.8988 49.3033 80.9049 49.1784 80.9134C48.9382 80.9295 48.6975 80.9467 48.46 80.9586C48.3374 80.9647 48.2167 80.9678 48.0948 80.9727C47.8584 80.9831 47.6216 80.9938 47.3879 80.9996C47.2668 81.0026 47.1481 81.0026 47.0274 81.0045C46.7979 81.0084 46.5676 81.013 46.3404 81.013C46.3385 81.013 46.3365 81.013 46.3346 81.013C46.327 81.013 46.3189 81.0134 46.3109 81.0134Z" fill="#000072"/>
<path fill-rule="evenodd" clip-rule="evenodd" d="M75.5986 75.0572C74.0468 75.0572 72.2931 74.9188 70.9087 74.4008C70.6547 74.5729 70.4106 74.7338 70.17 74.887C69.9665 74.6702 69.8941 74.3476 70.0102 74.0525C70.024 74.0177 70.0401 73.9843 70.0581 73.9525C70.0849 73.905 70.1164 73.861 70.1512 73.8211C70.1612 73.81 70.1711 73.7993 70.1811 73.7889C70.3302 73.6368 70.5351 73.5506 70.7482 73.5506C70.8451 73.5506 70.9432 73.5686 71.039 73.6062L71.0405 73.6069L71.0497 73.6104C71.8678 73.9353 72.8053 74.1004 73.7537 74.1874C74.3085 74.2345 74.8778 74.2629 75.4388 74.2629C75.838 74.2629 76.2327 74.2483 76.6151 74.2165C78.4826 74.0552 80.3029 73.4169 81.8658 72.3824C82.649 71.8685 83.3655 71.2509 83.9904 70.5539C84.61 69.8505 85.1242 69.0646 85.5779 68.2515C86.0254 67.4335 86.4112 66.5802 86.7258 65.6859C86.9883 64.9464 87.1959 64.182 87.3898 63.3862C87.5082 63.4207 87.6312 63.4655 87.758 63.5211L86.6361 68.0228C84.6974 72.177 80.4853 75.0572 75.5986 75.0572Z" fill="#000072"/>
<path fill-rule="evenodd" clip-rule="evenodd" d="M42.0069 72.8519C42.3517 72.1139 42.6119 71.3373 42.7812 70.5373C42.9514 70.5361 43.123 70.5323 43.2958 70.5258C48.0983 70.3457 51.3839 68.1452 51.2881 65.5869C51.1957 63.1209 47.983 60.8557 43.451 60.8557C43.2805 60.8557 43.1077 60.8587 42.9333 60.8652C42.0027 60.9001 41.1095 61.0266 40.2754 61.2262C40.0267 60.9503 39.7643 60.689 39.4907 60.4426C39.683 60.3886 39.8758 60.335 40.0681 60.2798C40.5555 60.1369 41.0352 59.9648 41.503 59.7575C41.9689 59.5418 42.4226 59.2863 42.8353 58.8951L42.836 58.8943C42.8444 58.8866 42.8521 58.8782 42.859 58.8694C45.6124 59.2552 58.9244 61.6017 58.2289 70.8219C58.2075 70.8131 58.1841 70.8078 58.1596 70.8059L58.1558 70.8055C57.9274 70.7867 57.7013 70.7783 57.478 70.7783C56.6588 70.7783 55.8691 70.8909 55.0848 71.0296C54.0843 71.1948 53.0958 71.4162 52.1042 71.6247C51.1122 71.8342 50.1118 71.9967 49.111 72.1469C48.1102 72.2975 47.1071 72.4297 46.1028 72.5408C44.7388 72.6906 43.3713 72.8025 42.0069 72.8519Z" fill="#F1F1F1"/>
<path fill-rule="evenodd" clip-rule="evenodd" d="M40.5061 72.8795C40.3632 72.8795 40.2206 72.8787 40.0781 72.8772C39.0784 72.8615 38.0815 72.8086 37.1037 72.6806C36.1266 72.555 35.1653 72.3546 34.2733 72.0312C33.387 71.7063 32.5721 71.2346 32.0341 70.5767L31.8464 70.3227L31.7766 70.2043C31.7966 70.2005 31.8161 70.1963 31.8356 70.192C32.1345 70.1177 32.4288 70.0346 32.7135 69.9177C32.9974 69.8074 33.2721 69.6656 33.5196 69.4916C33.7633 69.3173 33.994 69.1089 34.1235 68.8502C33.9028 69.0295 33.6353 69.1119 33.3744 69.1652C33.1748 69.2035 32.9736 69.2207 32.7721 69.2207C32.7085 69.2207 32.6449 69.2192 32.5813 69.2158C32.3184 69.2069 32.0548 69.1675 31.7973 69.1211L31.4107 69.0341L31.123 68.9541C30.9732 68.6495 30.8306 68.3441 30.6977 68.0387C30.6011 67.8092 30.5084 67.5766 30.4272 67.3448C30.6701 67.3027 30.9061 67.2502 31.1322 67.1732C31.4031 67.0877 31.6594 66.9758 31.9012 66.8486C32.1433 66.7229 32.3701 66.5777 32.5805 66.4183C32.7909 66.2593 32.9878 66.0869 33.1583 65.8965C32.9207 65.9884 32.6774 66.049 32.4349 66.0923C32.1927 66.1352 31.9514 66.1582 31.7138 66.1593C31.6985 66.1593 31.6828 66.1593 31.6671 66.1593C31.4467 66.1593 31.2306 66.1436 31.0222 66.1068C30.7992 66.0743 30.5854 66.0095 30.3835 65.9425C30.3099 65.9183 30.2302 65.9049 30.149 65.9049C30.1413 65.9049 30.134 65.9049 30.1264 65.9053C30.1249 65.7536 30.1371 65.6064 30.1651 65.4654C30.236 65.0895 30.4153 64.7493 30.6915 64.432C30.9693 64.1175 31.3203 63.8259 31.7195 63.5722C32.5096 63.0558 33.4204 62.6427 34.3384 62.2573C35.2618 61.8753 36.2094 61.527 37.1653 61.1951C37.6447 61.0315 38.1225 60.8649 38.6056 60.7089C38.8976 60.6116 39.1938 60.5262 39.4907 60.4426C39.7643 60.689 40.0268 60.9503 40.2754 61.2262C36.804 62.0569 34.3488 64.1566 34.4262 66.2191C34.5177 68.6671 38.1558 70.5376 42.6759 70.5376C42.7108 70.5376 42.746 70.5373 42.7813 70.5373C42.6119 71.3373 42.3518 72.1139 42.0069 72.8519C41.5061 72.8699 41.0057 72.8795 40.5061 72.8795Z" fill="#ECECEC"/>
<path fill-rule="evenodd" clip-rule="evenodd" d="M40.5038 74.2205C40.3563 74.2205 40.2084 74.2198 40.0605 74.2182C39.0206 74.2017 37.9765 74.147 36.9308 74.0106C35.8864 73.8753 34.8373 73.6619 33.8097 73.2894C33.2966 73.1021 32.7905 72.8657 32.3088 72.5638C31.8284 72.2614 31.372 71.8859 30.9938 71.4231C30.9019 71.3055 30.8149 71.1829 30.7272 71.0618C30.6513 70.9346 30.5685 70.7997 30.5003 70.6771L30.1421 69.9889C29.9057 69.5272 29.6773 69.0552 29.4654 68.567C29.2581 68.0751 29.0647 67.5662 28.9302 67.0133C28.798 66.4643 28.7271 65.8489 28.8466 65.219C28.9604 64.5887 29.2827 64.0014 29.6777 63.5542C30.0743 63.1044 30.5233 62.7458 30.9835 62.4511C31.9042 61.8519 32.864 61.4235 33.8238 61.0189C34.7856 60.6212 35.7542 60.2656 36.7251 59.9284C37.2109 59.7621 37.6972 59.5947 38.1834 59.4345C38.6704 59.2732 39.1478 59.0855 39.6313 58.9169C40.1141 58.7448 40.6092 58.6149 41.1134 58.5142C41.4287 58.4586 41.749 58.4199 42.0809 58.4199C42.1065 58.4199 42.1326 58.4203 42.1583 58.4207C42.336 58.4241 42.5177 58.4387 42.7035 58.4678C42.8391 58.4893 42.9318 58.6165 42.9108 58.7525C42.9035 58.7966 42.8855 58.8364 42.859 58.8694C42.8521 58.8782 42.8445 58.8866 42.8361 58.8943L42.8353 58.895C42.4226 59.2862 41.969 59.5418 41.5031 59.7575C41.0352 59.9648 40.5555 60.1368 40.0681 60.2798C39.8758 60.3349 39.6831 60.3886 39.4907 60.4426C39.1938 60.5261 38.8976 60.6116 38.6056 60.7089C38.1225 60.8648 37.6447 61.0315 37.1653 61.1951C36.2094 61.5269 35.2618 61.8752 34.3384 62.2572C33.4204 62.6427 32.5096 63.0557 31.7195 63.5722C31.3203 63.8259 30.9693 64.1175 30.6915 64.432C30.4153 64.7493 30.236 65.0895 30.1651 65.4654C30.1371 65.6064 30.1248 65.7535 30.1264 65.9053C30.0965 65.906 30.0666 65.9091 30.0363 65.9137C29.634 65.9769 29.3589 66.3543 29.4218 66.7566C29.4788 67.1206 29.7926 67.3804 30.1498 67.3804C30.1877 67.3804 30.2264 67.3773 30.2651 67.3712L30.2854 67.3682C30.3329 67.3605 30.3804 67.3528 30.4272 67.3448C30.5084 67.5766 30.6011 67.8092 30.6977 68.0387C30.8306 68.344 30.9732 68.6494 31.123 68.954L31.0291 68.928L31.0126 68.9234C30.9513 68.9065 30.8869 68.8977 30.8214 68.8977C30.7843 68.8977 30.7471 68.9004 30.7095 68.9061C30.3095 68.9674 30.0352 69.3414 30.0965 69.741C30.152 70.1031 30.4639 70.3625 30.8195 70.3625C30.8563 70.3625 30.8938 70.3595 30.9314 70.3537L31.3854 70.2844C31.5165 70.2602 31.6475 70.2315 31.7766 70.2043L31.8464 70.3227L32.0341 70.5767C32.5721 71.2346 33.387 71.7062 34.2733 72.0312C35.1653 72.3545 36.1266 72.5549 37.1037 72.6806C38.0815 72.8086 39.0784 72.8615 40.0781 72.8772C40.2206 72.8787 40.3632 72.8795 40.5061 72.8795C41.0057 72.8795 41.5061 72.8699 42.0069 72.8519C43.3713 72.8025 44.7388 72.6906 46.1028 72.5408C47.1071 72.4296 48.1102 72.2975 49.111 72.1469C50.1118 71.9967 51.1122 71.8342 52.1042 71.6246C53.0958 71.4162 54.0844 71.1947 55.0848 71.0296C55.8691 70.8909 56.6588 70.7782 57.478 70.7782C57.7014 70.7782 57.9274 70.7867 58.1558 70.8054L58.1596 70.8058C58.1841 70.8077 58.2075 70.8131 58.229 70.8219C58.3221 70.8595 58.3838 70.9541 58.3753 71.0591C58.3692 71.1346 58.3271 71.1997 58.2681 71.238C57.3554 71.8243 56.3722 72.1407 55.376 72.3917C54.3817 72.6534 53.3683 72.8281 52.3537 72.9879C51.3383 73.1446 50.3268 73.3216 49.3099 73.473C48.6336 73.5749 47.9554 73.6684 47.2757 73.7531C46.9343 73.7956 46.5921 73.8358 46.25 73.8734C44.3484 74.0822 42.4334 74.2205 40.5038 74.2205Z" fill="#000072"/>
<path fill-rule="evenodd" clip-rule="evenodd" d="M30.8195 70.3624C30.4639 70.3624 30.152 70.103 30.0965 69.7409C30.0352 69.3413 30.3095 68.9673 30.7095 68.906C30.7471 68.9003 30.7842 68.8976 30.8214 68.8976C30.8869 68.8976 30.9513 68.9064 31.0126 68.9233L31.0291 68.9279L31.1229 68.9539L31.4107 69.034L31.7973 69.121C32.0548 69.1673 32.3184 69.2068 32.5812 69.2156C32.6448 69.2191 32.7084 69.2206 32.772 69.2206C32.9736 69.2206 33.1747 69.2034 33.3744 69.1651C33.6353 69.1118 33.9027 69.0294 34.1234 68.8501C33.9939 69.1087 33.7633 69.3172 33.5196 69.4915C33.2721 69.6655 32.9973 69.8072 32.7134 69.9176C32.4287 70.0344 32.1345 70.1176 31.8356 70.1919C31.8161 70.1961 31.7965 70.2003 31.7766 70.2042C31.6475 70.2314 31.5164 70.2601 31.3854 70.2843L30.9314 70.3536C30.8938 70.3593 30.8563 70.3624 30.8195 70.3624Z" fill="#000072"/>
<path fill-rule="evenodd" clip-rule="evenodd" d="M30.1498 67.3804C29.7927 67.3804 29.4789 67.1207 29.4218 66.7567C29.3589 66.3544 29.634 65.9769 30.0364 65.9137C30.0666 65.9091 30.0965 65.9061 30.1264 65.9053C30.1341 65.9049 30.1413 65.9049 30.149 65.9049C30.2302 65.9049 30.3099 65.9183 30.3835 65.9425C30.5854 66.0095 30.7992 66.0743 31.0222 66.1068C31.2307 66.1436 31.4468 66.1593 31.6671 66.1593C31.6828 66.1593 31.6985 66.1593 31.7138 66.1593C31.9514 66.1582 32.1928 66.1352 32.4349 66.0923C32.6775 66.049 32.9208 65.9884 33.1583 65.8965C32.9878 66.0869 32.7909 66.2593 32.5805 66.4183C32.3702 66.5777 32.1433 66.723 31.9012 66.8486C31.6594 66.9758 31.4031 67.0877 31.1322 67.1732C30.9061 67.2502 30.6701 67.3027 30.4272 67.3448C30.3804 67.3529 30.3329 67.3605 30.2854 67.3682L30.2651 67.3713C30.2264 67.3774 30.1877 67.3804 30.1498 67.3804Z" fill="#000072"/>
<path fill-rule="evenodd" clip-rule="evenodd" d="M56.981 21.3583C56.981 21.3583 60.9222 4.76324 56.1419 1.47526C51.3617 -1.81276 42.1548 7.73519 42.1548 7.73519C35.6427 4.90941 30.334 5.5071 30.334 5.5071C30.334 5.5071 24.994 5.35893 18.7436 8.72335C18.7436 8.72335 8.76453 -0.0145316 4.27846 3.66465C-0.207653 7.34399 5.11784 23.548 5.11784 23.548L5.11741 23.5477C3.52847 26.8164 2.16566 30.6767 1.15849 35.2359C0.326084 39.0042 1.05293 42.9664 3.20098 46.1727C6.91001 51.7085 15.1614 57.8091 32.5085 57.0095C49.8608 56.3443 57.5688 49.5697 60.798 43.7412C62.6682 40.3652 63.0586 36.3558 61.9115 32.6714C60.5237 28.213 58.8405 24.4814 56.9814 21.3583H56.981Z" fill="white"/>
<path fill-rule="evenodd" clip-rule="evenodd" d="M60.798 43.7411C62.3828 40.8805 62.9004 37.5654 62.3249 34.3783C56.1565 32.6782 48.3753 36.8175 45.3166 38.8038C42.2353 40.8046 40.1279 36.5788 35.5503 34.1756C30.9728 31.7725 26.2944 32.1606 26.2944 32.1606C26.2944 32.1606 21.6004 32.1679 17.2416 34.9484C12.8828 37.729 11.1392 42.1173 7.89987 40.3831C6.03761 39.3862 3.69028 37.7551 0.888873 36.9868C0.588095 40.2065 1.38364 43.4599 3.20099 46.1726C6.90998 51.7085 15.1614 57.8091 32.5085 57.0094C49.8608 56.3443 57.5688 49.5697 60.798 43.7411Z" fill="#FAFBFB"/>
<path fill-rule="evenodd" clip-rule="evenodd" d="M29.1611 56.2179C21.9984 56.2179 16.5449 54.9676 12.4122 53.104C12.1188 52.9718 11.832 52.8365 11.5518 52.6982C10.2906 52.0759 9.16151 51.3955 8.15182 50.6778C7.9274 50.5184 7.70897 50.3571 7.49616 50.1943C7.28347 50.0314 7.07649 49.8667 6.8751 49.7008C6.69437 49.5521 6.51812 49.4019 6.34635 49.2509C5.45547 48.3363 4.721 47.4076 4.11508 46.5029C2.55479 44.1741 1.78219 41.387 1.88143 38.5915C2.23792 39.4758 2.68548 40.3276 3.22408 41.1315C6.71127 46.3363 14.2107 52.0403 29.5125 52.0395C30.4861 52.0395 31.4938 52.0162 32.5314 51.9687C49.8837 51.3031 57.5917 44.5289 60.8213 38.7C61.2815 37.8689 61.6493 36.9991 61.9279 36.1052C62.0267 36.9524 62.0447 37.8053 61.9834 38.6517C61.9631 38.7636 61.9417 38.8754 61.9183 38.9866C61.8988 39.0785 61.8769 39.1697 61.8555 39.2609C61.8252 39.3923 61.7945 39.5234 61.7604 39.6536C61.734 39.7536 61.7045 39.8525 61.6761 39.9517C61.6413 40.0732 61.6076 40.195 61.5692 40.3153C61.5351 40.4238 61.4968 40.5314 61.46 40.6391C61.4221 40.7495 61.3857 40.8606 61.3451 40.9702C61.3006 41.0893 61.2516 41.2073 61.2041 41.3253C61.165 41.4227 61.1282 41.5204 61.0868 41.6165C61.0278 41.7541 60.9635 41.8897 60.9002 42.0258C60.8646 42.1012 60.8321 42.1779 60.7953 42.253C60.6922 42.4637 60.5838 42.6721 60.4696 42.8783C59.4607 44.6998 58.0139 46.6137 55.9725 48.4045C55.8706 48.4942 55.7667 48.5835 55.6617 48.6724C54.7161 49.4724 53.6483 50.2452 52.4444 50.9717C52.3103 51.0525 52.175 51.1326 52.0378 51.2123C47.5105 53.8365 41.1275 55.8037 32.18 56.147C31.1413 56.1949 30.1355 56.2179 29.1611 56.2179Z" fill="#EEEEEE"/>
<path fill-rule="evenodd" clip-rule="evenodd" d="M4.9258 25.8784C5.21071 25.2083 5.50785 24.5546 5.81671 23.9182C5.82261 23.9071 5.82828 23.896 5.83361 23.8845C11.1825 13.5201 18.906 9.52799 19.0926 9.43297C19.101 9.42875 19.1099 9.42454 19.1183 9.41994C24.7572 6.38458 29.6857 6.2976 30.2574 6.2976C30.2907 6.2976 30.3095 6.2976 30.3122 6.2976C30.3191 6.29798 30.326 6.29798 30.3329 6.29798C30.3624 6.29798 30.3927 6.29645 30.4214 6.29338C30.436 6.29185 30.859 6.24855 31.5996 6.24855C33.4736 6.24855 37.381 6.52596 41.8398 8.4609C41.941 8.50458 42.0479 8.52604 42.154 8.52604C42.3644 8.52604 42.5717 8.44212 42.7238 8.28426C44.7679 6.16656 50.0857 1.57983 53.7886 1.57983C54.4932 1.57983 55.1396 1.74612 55.6936 2.12702C55.8959 2.26618 56.0802 2.43688 56.248 2.63566C55.758 2.39868 55.1457 2.24913 54.3798 2.24913C53.9506 2.24913 53.4732 2.29607 52.9426 2.40078C48.8294 3.2125 44.5537 7.63137 43.0495 9.31534C42.8422 9.54753 42.5517 9.67014 42.2567 9.67014C42.0866 9.67014 41.9149 9.62953 41.7563 9.546C38.291 8.22602 34.9656 7.60876 31.7877 7.60876C20.9298 7.60876 11.8153 14.8232 4.9258 25.8784Z" fill="#F1F1F1"/>
<path fill-rule="evenodd" clip-rule="evenodd" d="M16.3948 9.22446C14.7568 7.8972 9.94729 4.2704 6.30045 4.2704C5.59877 4.2704 4.93967 4.40481 4.35501 4.71574C4.48352 4.55048 4.62494 4.40335 4.78001 4.27618C5.39873 3.76877 6.17297 3.55359 7.03986 3.55359C10.3019 3.55359 14.8713 6.60252 17.3611 8.59914C17.0845 8.7685 16.7603 8.97617 16.3948 9.22446Z" fill="#F1F1F1"/>
<path fill-rule="evenodd" clip-rule="evenodd" d="M15.1511 11.0168C15.1511 11.0168 9.7542 6.40134 7.48752 8.26003C5.22084 10.1191 7.98329 18.5849 7.98325 18.5849C10.2189 15.312 12.6909 12.8575 15.1511 11.0168Z" fill="#F1F1F1"/>
<path fill-rule="evenodd" clip-rule="evenodd" d="M45.9274 9.71788C45.9274 9.71788 50.9161 4.66343 53.3315 6.32465C55.7469 7.98601 53.7077 16.6545 53.7077 16.6545C51.2042 13.5816 48.5344 11.3444 45.9274 9.71788Z" fill="#F1F1F1"/>
<path fill-rule="evenodd" clip-rule="evenodd" d="M5.81723 23.9182C4.17541 27.3015 2.868 31.1664 1.93137 35.4068C1.14495 38.9671 1.84739 42.7304 3.85857 45.7321C7.35905 50.9568 15.1646 57.0176 32.4726 56.2191C49.792 55.5554 57.0589 48.8586 60.1066 43.3577C61.8576 40.1974 62.2404 36.3877 61.1568 32.9067C59.8663 28.7609 58.2383 25.0206 56.3172 21.7879C56.2045 21.6131 56.1601 21.3944 56.2122 21.176C57.2724 16.7061 59.2468 4.57078 55.6941 2.12704C52.2293 -0.255692 45.1573 5.76385 42.7243 8.28429C42.4952 8.52184 42.1427 8.59196 41.8404 8.46092C35.6198 5.76159 30.4733 6.28804 30.4219 6.29341C30.3863 6.29724 30.3491 6.29877 30.3127 6.29762C30.2629 6.29724 25.0891 6.20643 19.1188 9.41996C18.828 9.57629 18.4713 9.53568 18.223 9.31881C15.5865 7.01183 8.03164 1.60993 4.78056 4.27628C1.44634 7.01068 4.43641 18.9364 5.86988 23.301C5.93808 23.5086 5.91624 23.7312 5.81723 23.9182ZM29.4981 57.8712C22.8446 57.8712 17.108 56.8038 12.4159 54.688C8.17395 52.7749 4.85267 50.0579 2.54431 46.6126C0.293993 43.2542 -0.492473 39.0452 0.386602 35.0654C1.32606 30.8127 2.63167 26.9191 4.2687 23.4879C3.94302 22.4526 2.89582 18.9778 2.2366 15.119C1.16265 8.83182 1.68094 4.77228 3.77742 3.05313C8.22062 -0.591337 16.8291 6.10106 18.8479 7.77469C24.7363 4.74365 29.6928 4.70714 30.3012 4.71542C30.907 4.6561 35.8482 4.27444 41.9718 6.79879C43.842 4.96083 51.8561 -2.43229 56.5907 0.823391C58.8245 2.35996 59.6832 6.36161 59.1426 12.717C58.8111 16.6172 58.0605 20.1675 57.8233 21.2269C59.7437 24.5087 61.3729 28.2782 62.6672 32.4362C63.8787 36.3279 63.4496 40.5882 61.4905 44.1243C59.4809 47.7521 56.4003 50.7392 52.3346 53.0028C47.1662 55.8803 40.5058 57.4946 32.5392 57.8C31.5055 57.8475 30.4913 57.8712 29.4981 57.8712Z" fill="#000072"/>
<path fill-rule="evenodd" clip-rule="evenodd" d="M33.7525 22.2724C33.7978 23.3407 35.3909 24.1407 37.3105 24.0595C39.2305 23.9786 40.7505 23.0472 40.7053 21.9789C40.6601 20.9111 39.0673 20.1111 37.1473 20.1919C35.2273 20.2731 33.7077 21.2046 33.7525 22.2724Z" fill="#FAFBFB"/>
<path fill-rule="evenodd" clip-rule="evenodd" d="M18.2478 23.455C18.2926 24.5233 16.773 25.4547 14.853 25.5356C12.933 25.6168 11.3401 24.8168 11.295 23.7485C11.2499 22.6807 12.7698 21.7492 14.6898 21.668C16.6094 21.5871 18.2025 22.3872 18.2478 23.455Z" fill="#FAFBFB"/>
<path fill-rule="evenodd" clip-rule="evenodd" d="M5.11667 24.3389C4.99471 24.3389 4.87095 24.3106 4.75501 24.2508C4.36672 24.0508 4.21407 23.5738 4.41415 23.1856C10.0539 12.2392 18.0546 8.182 18.3922 8.01456C18.7838 7.82145 19.2585 7.98122 19.4524 8.37242C19.6459 8.76324 19.4861 9.23759 19.0953 9.43185C19.0171 9.47093 11.2083 13.4527 5.82049 23.9098C5.68018 24.1826 5.40338 24.3389 5.11667 24.3389Z" fill="#000072"/>
<path fill-rule="evenodd" clip-rule="evenodd" d="M29.1838 40.6438C29.3467 44.4991 27.8523 47.6927 25.8461 47.7774C23.8399 47.8621 22.0816 44.8056 21.9188 40.9507L29.1838 40.6438Z" fill="#FF6C6C"/>
<path fill-rule="evenodd" clip-rule="evenodd" d="M25.7638 47.8681C24.7894 47.8681 23.8518 47.1673 23.1142 45.8856C22.3656 44.5841 21.9092 42.8327 21.8298 40.9544C21.828 40.9054 21.8659 40.864 21.915 40.8617C21.9652 40.864 22.0054 40.8977 22.0073 40.9468C22.0855 42.7974 22.5334 44.5197 23.2679 45.7971C23.9924 47.0566 24.9093 47.7271 25.8423 47.6888C27.7964 47.606 29.2559 44.4473 29.0953 40.6475C29.0934 40.5985 29.1313 40.5571 29.1804 40.5552C29.2302 40.559 29.2708 40.5908 29.2727 40.6399C29.4371 44.5377 27.9018 47.7796 25.8496 47.8662C25.8212 47.8673 25.7925 47.8681 25.7638 47.8681Z" fill="#000072"/>
<path fill-rule="evenodd" clip-rule="evenodd" d="M29.1926 41.5166C29.165 42.7837 28.9555 43.9546 28.6098 44.9317C28.016 46.6176 27.019 47.7283 25.8458 47.7781C24.6725 47.8276 23.5836 46.8026 22.8514 45.1692C22.4249 44.2263 22.1196 43.0791 21.9851 41.8208L29.1926 41.5166Z" fill="#ED2E7A"/>
<path fill-rule="evenodd" clip-rule="evenodd" d="M22.0973 41.9169C22.233 43.0936 22.5245 44.2017 22.9433 45.1274C23.6901 46.7941 24.7457 47.724 25.8415 47.6773C26.9347 47.6309 27.909 46.6178 28.5148 44.8982C28.8554 43.9346 29.0535 42.8039 29.0892 41.6215L22.0973 41.9169ZM25.7634 47.8803C24.6135 47.8803 23.5227 46.9133 22.7594 45.2101C22.3196 44.2373 22.0172 43.069 21.8851 41.8315L21.8736 41.7246L29.2957 41.4111L29.2934 41.5184C29.2662 42.761 29.0627 43.9526 28.7049 44.9653C28.0703 46.7669 27.0297 47.8286 25.85 47.8784C25.8212 47.88 25.7921 47.8803 25.7634 47.8803Z" fill="#000072"/>
<path fill-rule="evenodd" clip-rule="evenodd" d="M25.4346 45.2116L24.9679 41.2214C24.9292 40.8903 25.166 40.5907 25.4971 40.552C25.8281 40.5133 26.1278 40.7501 26.1665 41.0811C26.1699 41.1103 26.1711 41.1424 26.1703 41.1708L26.0412 45.1859C26.0358 45.3541 25.8952 45.4859 25.7274 45.4805C25.5745 45.4756 25.4519 45.3587 25.4346 45.2116Z" fill="#000072"/>
<path fill-rule="evenodd" clip-rule="evenodd" d="M25.7335 48.3815C24.6127 48.3815 23.5533 47.8037 22.7368 46.7424C21.9345 45.6998 21.4578 44.2994 21.3946 42.7993C21.3804 42.4671 21.6383 42.1866 21.9705 42.1725C22.3004 42.161 22.5828 42.4165 22.597 42.7483C22.6498 44.0032 23.0383 45.1607 23.6905 46.0086C24.2951 46.7941 25.0518 47.2064 25.8208 47.1761C27.4922 47.1056 28.7658 45.0044 28.6596 42.4924C28.6458 42.1606 28.9033 41.8801 29.2355 41.8659C29.5639 41.8533 29.8482 42.1096 29.862 42.4414C29.9961 45.6166 28.206 48.28 25.8714 48.3784C25.8254 48.3803 25.7791 48.3815 25.7335 48.3815Z" fill="#000072"/>
<path fill-rule="evenodd" clip-rule="evenodd" d="M21.7325 44.7707C20.0597 44.3558 18.8788 42.4316 18.6366 40.7353L19.2397 40.7074C19.4275 41.5629 19.8233 42.2316 20.3965 42.6553C20.693 42.8745 21.0352 43.027 21.4138 43.1105C21.4605 43.6868 21.5682 44.245 21.7325 44.7707ZM29.6876 44.4332C29.8083 43.8983 29.8716 43.3297 29.8693 42.7408C30.2206 42.6251 30.5333 42.4496 30.7988 42.2162C31.3452 41.7361 31.6862 41.0169 31.7942 40.1234L32.3954 40.0955C32.2965 41.8154 31.4046 43.8707 29.6876 44.4332Z" fill="#AFAFD2"/>
<path fill-rule="evenodd" clip-rule="evenodd" d="M23.0115 44.7867C22.8161 44.2844 22.6851 43.7338 22.6261 43.1564C22.6793 43.1499 22.7326 43.1426 22.7862 43.1342C23.9323 42.9537 24.6139 42.3901 25.0193 41.7935L25.0346 41.7927L25.2331 43.4882C24.8649 43.9522 24.1798 44.558 23.0115 44.7867ZM28.4186 44.5672C27.2512 44.4683 26.5143 43.9461 26.0948 43.512L26.1503 41.7839C26.6063 42.3296 27.3263 42.8131 28.4577 42.8947C28.5278 42.8997 28.5968 42.9031 28.665 42.9047C28.6547 43.4951 28.5677 44.0568 28.4186 44.5672Z" fill="#A52078"/>
<path fill-rule="evenodd" clip-rule="evenodd" d="M25.0192 41.7939C25.0236 41.7873 25.0283 41.7806 25.0326 41.7739L25.0349 41.7931L25.0192 41.7939Z" fill="#000072"/>
<path fill-rule="evenodd" clip-rule="evenodd" d="M26.0948 43.5121C25.7737 43.1791 25.6384 42.8979 25.6384 42.8979L25.5959 42.8994C25.5959 42.8994 25.4948 43.158 25.2331 43.4883L25.0346 41.7928L25.0323 41.7741C25.2997 41.3737 25.4442 40.9602 25.5216 40.6392C25.6312 40.9683 25.8227 41.3921 26.1503 41.784L26.0948 43.5121Z" fill="#000072"/>
<path fill-rule="evenodd" clip-rule="evenodd" d="M22.3977 44.8519C22.1686 44.8519 21.9468 44.8236 21.7326 44.7707C21.5682 44.245 21.4605 43.6867 21.4138 43.1105C21.6425 43.1614 21.8843 43.1867 22.1372 43.1867C22.2962 43.1867 22.459 43.1768 22.6261 43.1565C22.6851 43.7339 22.8161 44.2845 23.0116 44.7868C22.9579 44.7975 22.9027 44.8071 22.8472 44.8163C22.6947 44.8404 22.5449 44.8519 22.3977 44.8519ZM28.7371 44.5818C28.6719 44.5818 28.606 44.5799 28.539 44.5757C28.4983 44.5734 28.4581 44.5707 28.4187 44.5672C28.5677 44.0569 28.6547 43.4952 28.665 42.9047C28.701 42.9059 28.7367 42.9062 28.7723 42.9062C29.1681 42.9062 29.5359 42.8503 29.8693 42.7407C29.8716 43.3296 29.8084 43.8982 29.6877 44.4331C29.3949 44.5293 29.0781 44.5814 28.7371 44.5818Z" fill="#000072"/>
<path fill-rule="evenodd" clip-rule="evenodd" d="M31.7337 39.8008C31.615 41.8702 30.3498 42.9419 28.4643 42.8063C26.3117 42.6511 25.6894 40.9813 25.5312 40.3564L25.4887 40.3579C25.3833 40.9943 24.9044 42.7105 22.7725 43.0465C20.905 43.3408 19.554 42.3794 19.2612 40.3272L31.7337 39.8008Z" fill="white"/>
<path fill-rule="evenodd" clip-rule="evenodd" d="M22.1372 43.1868C21.4659 43.1868 20.8724 43.0071 20.3965 42.6553C19.7436 42.1729 19.3206 41.3721 19.1734 40.3399C19.1665 40.2912 19.2003 40.246 19.2485 40.2391C19.298 40.2334 19.342 40.2663 19.3489 40.3146C19.4895 41.2989 19.888 42.0587 20.5018 42.5124C21.0869 42.9446 21.8678 43.099 22.7586 42.9588C24.8066 42.6362 25.2886 41.0223 25.4009 40.3437C25.4078 40.302 25.4426 40.2713 25.4844 40.2694L25.5273 40.2675C25.5683 40.2679 25.607 40.2935 25.6174 40.3342C25.786 41.0016 26.4025 42.5687 28.4707 42.7178C29.37 42.7814 30.1348 42.563 30.6815 42.0829C31.2547 41.579 31.5881 40.7882 31.6452 39.7958C31.6479 39.7468 31.6896 39.7138 31.7387 39.7119C31.7877 39.715 31.8253 39.7571 31.8222 39.8058C31.7624 40.8468 31.4084 41.6806 30.7988 42.2162C30.2156 42.7285 29.4064 42.9622 28.4577 42.8948C26.5124 42.7546 25.7837 41.4258 25.5216 40.6392C25.3269 41.4449 24.7127 42.8308 22.7862 43.1343C22.5632 43.1691 22.3464 43.1868 22.1372 43.1868Z" fill="#000072"/>
<path fill-rule="evenodd" clip-rule="evenodd" d="M22.1379 43.009C21.5046 43.009 20.9467 42.8412 20.5018 42.5125C19.8899 42.0603 19.4918 41.3036 19.3501 40.3235L19.816 40.3039C20.3294 41.0197 21.1068 41.3925 22.059 41.3925C22.2647 41.3925 22.4785 41.3752 22.6996 41.34C23.7786 41.171 24.4334 40.6484 24.8311 40.0921L25.202 40.0763L26.1645 40.0357C26.6082 40.5564 27.3044 41.022 28.3922 41.0998C28.4998 41.1078 28.6056 41.1116 28.7091 41.1116C29.8156 41.1116 30.6781 40.6656 31.18 39.8242L31.6448 39.8047C31.5862 40.7928 31.2532 41.5806 30.6815 42.0829C30.1968 42.5086 29.5405 42.7286 28.7707 42.7286C28.6727 42.7286 28.5723 42.7251 28.4707 42.7178C26.4024 42.5688 25.786 41.0017 25.6174 40.3342C25.607 40.2936 25.5683 40.2679 25.5273 40.2675L25.4844 40.2695C25.4426 40.2714 25.4078 40.302 25.4009 40.3438C25.2886 41.0224 24.8066 42.6362 22.7586 42.9588C22.5448 42.9926 22.3375 43.009 22.1379 43.009Z" fill="#B2B2D4"/>
<path fill-rule="evenodd" clip-rule="evenodd" d="M22.131 43.0982C20.5999 43.0982 19.519 42.1365 19.2619 40.3272L19.3501 40.3234C19.4918 41.3035 19.8899 42.0603 20.5018 42.5124C20.9467 42.8411 21.5046 43.0089 22.1379 43.0089C22.3375 43.0089 22.5448 42.9925 22.7586 42.9588C24.8066 42.6361 25.2886 41.0223 25.4009 40.3437C25.4078 40.302 25.4426 40.2713 25.4844 40.2694L25.5273 40.2675C25.5683 40.2679 25.607 40.2935 25.6174 40.3341C25.786 41.0016 26.4024 42.5687 28.4707 42.7178C28.5723 42.725 28.6727 42.7285 28.7707 42.7285C29.5405 42.7285 30.1968 42.5085 30.6815 42.0829C31.2532 41.5805 31.5862 40.7928 31.6448 39.8046L31.7337 39.8008C31.621 41.7526 30.4907 42.8174 28.7799 42.8174C28.6769 42.8174 28.5715 42.8135 28.4642 42.8055C26.3116 42.6511 25.6905 40.9817 25.5308 40.3564L25.4882 40.3583C25.3836 40.9947 24.9051 42.7105 22.7713 43.0461C22.5506 43.081 22.3368 43.0982 22.131 43.0982Z" fill="#000072"/>
<path fill-rule="evenodd" clip-rule="evenodd" d="M22.1353 43.6999C21.3544 43.7002 20.6574 43.4861 20.0915 43.068C19.3256 42.5021 18.8328 41.5837 18.6654 40.4124C18.6186 40.0832 18.847 39.7786 19.1761 39.7315C19.5056 39.6844 19.8099 39.9131 19.857 40.2423C19.9773 41.0875 20.3061 41.7301 20.8068 42.0998C21.2789 42.4489 21.926 42.5703 22.6786 42.4523C24.3346 42.1914 24.7779 40.9668 24.8947 40.2599C24.9411 39.9794 25.1779 39.7694 25.4622 39.7572L25.5047 39.7553C25.7875 39.7419 26.0442 39.9319 26.1143 40.2085C26.2902 40.9028 26.8354 42.0856 28.5075 42.2063C29.2666 42.2611 29.9018 42.0849 30.3432 41.6975C30.8111 41.2864 31.0839 40.6189 31.1329 39.7664C31.1521 39.4346 31.4371 39.1778 31.7682 39.2001C32.1 39.2192 32.3536 39.5035 32.3345 39.8353C32.2667 41.0166 31.8525 41.9734 31.1371 42.6014C30.4486 43.2067 29.5091 43.4845 28.4209 43.4067C26.9481 43.3006 26.0787 42.5799 25.5733 41.8622C25.1304 42.6201 24.3246 43.4113 22.8659 43.6409C22.6157 43.6803 22.3717 43.6999 22.1353 43.6999Z" fill="#000072"/>
<path fill-rule="evenodd" clip-rule="evenodd" d="M25.5036 40.8185C25.1829 40.8185 24.9162 40.5653 24.9028 40.2423L24.7768 37.2552C24.7626 36.923 25.0205 36.6425 25.3523 36.6287C25.6818 36.6149 25.9649 36.8724 25.9791 37.2042L26.1052 40.1913C26.119 40.5235 25.8615 40.804 25.5293 40.8178C25.5205 40.8181 25.512 40.8185 25.5036 40.8185Z" fill="#000072"/>
<path fill-rule="evenodd" clip-rule="evenodd" d="M29.1788 36.5018C29.2313 37.7467 27.5225 39.492 25.3277 39.5847C23.1326 39.6774 21.2828 38.0823 21.2303 36.8371C21.1778 35.5922 22.9525 35.4121 25.1477 35.3194C27.3424 35.227 29.1263 35.2565 29.1788 36.5018Z" fill="#000072"/>
<path fill-rule="evenodd" clip-rule="evenodd" d="M26.9078 36.24C26.9193 36.5132 26.1626 36.912 25.2097 36.9523C24.2572 36.9925 23.4694 36.6588 23.4579 36.386C23.4464 36.1128 24.2177 36.0572 25.1702 36.017C26.1231 35.9768 26.8963 35.9672 26.9078 36.24Z" fill="white"/>
<path fill-rule="evenodd" clip-rule="evenodd" d="M25.9354 36.0769C25.6595 36.0769 25.3756 36.0892 25.1737 36.0976C24.6591 36.119 24.2568 36.144 23.966 36.1934C23.5755 36.2604 23.5368 36.3482 23.5384 36.3827C23.5418 36.462 23.6901 36.598 24.0077 36.7106C24.3522 36.8329 24.7779 36.8911 25.2066 36.8719C26.1565 36.8321 26.8354 36.4352 26.8274 36.2436C26.8216 36.1095 26.3898 36.0769 25.9354 36.0769ZM25.0514 37.0363C24.6583 37.0363 24.2736 36.9758 23.9541 36.8628C23.5951 36.7352 23.3847 36.5627 23.3774 36.3896C23.3675 36.1593 23.6932 36.0769 23.9391 36.0348C24.238 35.9838 24.6461 35.9585 25.1672 35.9367C26.2572 35.8903 26.9734 35.8865 26.9883 36.2371C27.004 36.6068 26.1411 36.9938 25.2131 37.0329C25.1595 37.0352 25.1055 37.0363 25.0514 37.0363Z" fill="#000072"/>
<path fill-rule="evenodd" clip-rule="evenodd" d="M5.32301 21.5136C4.70478 19.3575 3.99962 16.4456 3.59509 13.6025C4.4124 13.8803 5.25411 14.0014 6.10012 14.0014C6.35312 14.0014 6.60658 13.9907 6.85973 13.97C7.11338 15.4846 7.49259 16.9207 7.73892 17.777C6.91671 18.9081 6.10384 20.1507 5.32301 21.5136Z" fill="#EEEEEE"/>
<path fill-rule="evenodd" clip-rule="evenodd" d="M7.73895 17.7769C7.49262 16.9206 7.11341 15.4845 6.85976 13.9699C9.06827 13.7898 11.2637 12.8614 13.0874 11.8269C11.4341 13.3078 9.56495 15.265 7.73895 17.7769Z" fill="#F1F1F1"/>
<path fill-rule="evenodd" clip-rule="evenodd" d="M5.17643 21.7713L2.82217 13.2878C3.07689 13.4093 3.33471 13.5139 3.59507 13.6024C3.99961 16.4454 4.70477 19.3574 5.32299 21.5134C5.27433 21.5985 5.22482 21.6855 5.17643 21.7713Z" fill="#000072"/>
<path fill-rule="evenodd" clip-rule="evenodd" d="M5.47913 22.8618L5.17648 21.7713C5.22487 21.6855 5.27437 21.5985 5.32303 21.5135C6.10387 20.1506 6.91673 18.908 7.73895 17.7769C9.56496 15.265 11.4341 13.3078 13.0874 11.8269C15.7212 10.333 17.5799 8.61835 17.5799 8.61835L19.3432 8.40991C12.3744 11.825 5.47913 22.8618 5.47913 22.8618Z" fill="#000072"/>
<path fill-rule="evenodd" clip-rule="evenodd" d="M96.6699 65.4971C96.9255 65.4178 97.2124 65.4381 97.4849 65.489C97.7596 65.5423 98.0305 65.6346 98.2861 65.7534C98.5466 65.8687 98.7903 66.0117 99.0317 66.1634C99.1474 66.2427 99.2662 66.3216 99.3815 66.4048L99.7191 66.663C100.016 66.8906 100.073 67.3155 99.8451 67.6129C99.6179 67.9098 99.1926 67.9661 98.8957 67.7389C98.8179 67.6795 98.7566 67.6064 98.7125 67.5255L98.7052 67.5113L98.5313 67.1891L98.3416 66.8757C98.2075 66.6737 98.065 66.4726 97.9025 66.2917C97.742 66.1059 97.5623 65.9381 97.36 65.7948C97.1577 65.6549 96.9312 65.5293 96.6699 65.4971Z" fill="#000072"/>
<path fill-rule="evenodd" clip-rule="evenodd" d="M95.3181 68.0339C95.5545 68.0259 95.7955 68.0466 96.0365 68.0849C96.2776 68.1232 96.5197 68.1815 96.7592 68.2623C96.9986 68.3424 97.2377 68.442 97.468 68.5677C97.7025 68.6888 97.9228 68.8416 98.1412 69.0075L98.1562 69.019C98.4566 69.2474 98.5148 69.6754 98.2868 69.9754C98.0585 70.2758 97.6305 70.334 97.3301 70.1061C97.2412 70.0382 97.1722 69.9501 97.127 69.8559C97.0423 69.6781 96.9485 69.4942 96.8274 69.3244C96.7105 69.1505 96.5722 68.9857 96.4189 68.8294C96.112 68.5163 95.7419 68.2374 95.3181 68.0339Z" fill="#000072"/>
<circle cx="18.006" cy="28.876" r="1.92748" fill="#000072"/>
<ellipse cx="32.8945" cy="29.0229" rx="1.79898" ry="1.92748" fill="#000072"/>
</svg>
