<svg width="119" height="48" viewBox="0 0 119 48" fill="none" xmlns="http://www.w3.org/2000/svg">
<path d="M70.272 17.4L73.8 30H71.37L70.614 27.192H66.222L65.466 30H63.036L66.564 17.4H70.272ZM70.038 25.032L68.508 19.344H68.328L66.798 25.032H70.038ZM77.2481 22.332C77.4161 21.876 77.6801 21.546 78.0401 21.342C78.4121 21.138 78.8921 21.036 79.4801 21.036H80.4161V22.944H79.0841C78.4841 22.944 78.0041 23.106 77.6441 23.43C77.2841 23.742 77.1041 24.204 77.1041 24.816V30H74.8361V21.072H77.0681V22.332H77.2481ZM83.1282 21.072V18.3H85.3962V21.072H87.8442V22.908H85.3962V27.624C85.3962 27.984 85.5642 28.164 85.9002 28.164H87.6282V30H85.1082C84.5082 30 84.0282 29.82 83.6682 29.46C83.3082 29.088 83.1282 28.596 83.1282 27.984V22.908H80.8962V21.072H83.1282ZM96.6192 17.4V30H94.2432V17.4H96.6192ZM100.904 22.404H101.084C101.552 21.42 102.47 20.928 103.838 20.928C104.522 20.928 105.128 21.09 105.656 21.414C106.184 21.726 106.592 22.164 106.88 22.728C107.168 23.292 107.312 23.94 107.312 24.672V30H105.044V24.78C105.044 24.108 104.882 23.604 104.558 23.268C104.234 22.932 103.76 22.764 103.136 22.764C102.44 22.764 101.9 22.998 101.516 23.466C101.132 23.922 100.94 24.564 100.94 25.392V30H98.6721V21.072H100.904V22.404ZM115.593 28.668H115.413C114.945 29.652 114.027 30.144 112.659 30.144C111.975 30.144 111.369 29.988 110.841 29.676C110.313 29.352 109.905 28.908 109.617 28.344C109.329 27.78 109.185 27.132 109.185 26.4V21.072H111.453V26.292C111.453 26.964 111.615 27.468 111.939 27.804C112.263 28.14 112.737 28.308 113.361 28.308C114.057 28.308 114.597 28.08 114.981 27.624C115.365 27.156 115.557 26.508 115.557 25.68V21.072H117.825V30H115.593V28.668Z" fill="black"/>
<g filter="url(#filter0_d)">
<path fill-rule="evenodd" clip-rule="evenodd" d="M42.6787 18.5029C42.6787 18.5029 45.3556 7.23135 42.1088 4.99813C38.862 2.76488 32.6086 9.24992 32.6086 9.24992C28.1855 7.33063 24.5799 7.73658 24.5799 7.73658C24.5799 7.73658 20.9528 7.63595 16.7075 9.92109C16.7075 9.92109 9.92967 3.98625 6.88269 6.48518C3.83569 8.98421 7.4528 19.9901 7.4528 19.9901L7.45252 19.9899C6.37329 22.21 5.44766 24.832 4.76359 27.9286C4.19821 30.4881 4.69189 33.1792 6.15086 35.357C8.67006 39.1169 14.2745 43.2605 26.0567 42.7174C37.8426 42.2656 43.0779 37.6643 45.2712 33.7055C46.5415 31.4125 46.8067 28.6893 46.0275 26.1868C45.0849 23.1586 43.9417 20.6241 42.679 18.5029H42.6787Z" fill="white"/>
<path fill-rule="evenodd" clip-rule="evenodd" d="M45.2713 33.7056C46.3476 31.7627 46.6992 29.511 46.3083 27.3463C42.1187 26.1916 36.8337 29.003 34.7562 30.3521C32.6633 31.7111 31.232 28.8409 28.1228 27.2087C25.0137 25.5764 21.8362 25.8401 21.8362 25.8401C21.8362 25.8401 18.6479 25.845 15.6874 27.7336C12.7269 29.6222 11.5426 32.6027 9.34242 31.4249C8.07756 30.7477 6.48324 29.6399 4.5805 29.1181C4.37621 31.3049 4.91655 33.5146 6.15091 35.3571C8.67008 39.1171 14.2745 43.2607 26.0568 42.7176C37.8426 42.2658 43.0779 37.6644 45.2713 33.7056Z" fill="#FAFBFB"/>
<path fill-rule="evenodd" clip-rule="evenodd" d="M23.7831 42.1798C18.9181 42.1798 15.2141 41.3307 12.4071 40.0648C12.2078 39.975 12.013 39.8832 11.8227 39.7892C10.9661 39.3666 10.1992 38.9044 9.51344 38.417C9.36102 38.3087 9.21265 38.1992 9.06811 38.0885C8.92365 37.9779 8.78307 37.866 8.64629 37.7534C8.52353 37.6524 8.40382 37.5504 8.28715 37.4478C7.68206 36.8266 7.1832 36.1958 6.77165 35.5814C5.71189 33.9996 5.18714 32.1066 5.25454 30.2079C5.49667 30.8085 5.80066 31.387 6.16649 31.933C8.53501 35.4682 13.6287 39.3424 24.0218 39.3419C24.683 39.3419 25.3675 39.326 26.0722 39.2937C37.8581 38.8417 43.0934 34.2406 45.287 30.2815C45.5995 29.7171 45.8494 29.1263 46.0386 28.5192C46.1057 29.0946 46.1179 29.6739 46.0763 30.2487C46.0625 30.3247 46.0479 30.4007 46.0321 30.4762C46.0188 30.5386 46.0039 30.6006 45.9894 30.6625C45.9688 30.7518 45.948 30.8408 45.9248 30.9293C45.9069 30.9972 45.8868 31.0643 45.8676 31.1317C45.8439 31.2142 45.821 31.297 45.795 31.3787C45.7718 31.4524 45.7458 31.5255 45.7208 31.5986C45.695 31.6736 45.6703 31.749 45.6427 31.8235C45.6125 31.9044 45.5792 31.9846 45.547 32.0647C45.5204 32.1308 45.4954 32.1972 45.4673 32.2625C45.4272 32.3559 45.3835 32.448 45.3406 32.5404C45.3164 32.5917 45.2943 32.6438 45.2693 32.6948C45.1993 32.8379 45.1256 32.9795 45.0481 33.1195C44.3629 34.3567 43.3802 35.6566 41.9936 36.873C41.9244 36.9339 41.8539 36.9945 41.7825 37.0549C41.1403 37.5983 40.415 38.1232 39.5973 38.6166C39.5062 38.6715 39.4143 38.7259 39.3212 38.78C36.2461 40.5624 31.9108 41.8985 25.8336 42.1317C25.1281 42.1642 24.4449 42.1798 23.7831 42.1798Z" fill="#EEEEEE"/>
<path fill-rule="evenodd" clip-rule="evenodd" d="M7.32227 21.573C7.51578 21.1178 7.7176 20.6739 7.92738 20.2416C7.93139 20.2341 7.93524 20.2265 7.93886 20.2187C11.5718 13.1791 16.8177 10.4677 16.9445 10.4031C16.9502 10.4003 16.9562 10.3974 16.9619 10.3943C20.7919 8.33263 24.1394 8.27356 24.5277 8.27356C24.5503 8.27356 24.5631 8.27356 24.5649 8.27356C24.5696 8.27382 24.5743 8.27382 24.579 8.27382C24.599 8.27382 24.6196 8.27278 24.6391 8.27069C24.649 8.26965 24.9363 8.24025 25.4393 8.24025C26.7122 8.24025 29.3661 8.42866 32.3946 9.74289C32.4633 9.77255 32.5359 9.78713 32.608 9.78713C32.7508 9.78713 32.8916 9.73013 32.9949 9.62291C34.3833 8.18455 37.9952 5.06921 40.5102 5.06921C40.9888 5.06921 41.4278 5.18216 41.8042 5.44087C41.9416 5.53539 42.0667 5.65132 42.1807 5.78634C41.8479 5.62538 41.432 5.52381 40.9118 5.52381C40.6203 5.52381 40.2961 5.55569 39.9356 5.62681C37.1419 6.17813 34.2379 9.17946 33.2162 10.3232C33.0754 10.4809 32.8781 10.5642 32.6777 10.5642C32.5622 10.5642 32.4456 10.5366 32.3378 10.4799C29.9842 9.58336 27.7256 9.16411 25.5671 9.16411C18.1923 9.16411 12.0016 14.0642 7.32227 21.573Z" fill="#F1F1F1"/>
<path fill-rule="evenodd" clip-rule="evenodd" d="M15.1123 10.2616C13.9998 9.36013 10.7331 6.89677 8.25617 6.89677C7.77959 6.89677 7.33192 6.98807 6.93481 7.19925C7.0221 7.08701 7.11816 6.98708 7.22348 6.9007C7.64372 6.55606 8.16959 6.40991 8.75839 6.40991C10.974 6.40991 14.0776 8.48077 15.7687 9.83689C15.5808 9.95192 15.3606 10.093 15.1123 10.2616Z" fill="#F1F1F1"/>
<path fill-rule="evenodd" clip-rule="evenodd" d="M14.2674 11.479C14.2674 11.479 10.6018 8.3441 9.06223 9.60654C7.52269 10.8692 9.39896 16.6193 9.39894 16.6193C10.9174 14.3963 12.5964 12.7292 14.2674 11.479Z" fill="#F1F1F1"/>
<path fill-rule="evenodd" clip-rule="evenodd" d="M35.1709 10.5967C35.1709 10.5967 38.5593 7.16366 40.1998 8.29196C41.8404 9.42038 40.4554 15.3081 40.4554 15.3081C38.755 13.221 36.9416 11.7014 35.1709 10.5967Z" fill="#F1F1F1"/>
<path fill-rule="evenodd" clip-rule="evenodd" d="M7.92746 20.2416C6.81232 22.5396 5.92432 25.1646 5.28815 28.0447C4.75401 30.4629 5.23111 33.019 6.59712 35.0578C8.97467 38.6064 14.2763 42.723 26.032 42.1806C37.7955 41.7299 42.7312 37.1813 44.8012 33.445C45.9905 31.2986 46.2505 28.711 45.5145 26.3467C44.638 23.5308 43.5323 20.9903 42.2274 18.7947C42.1509 18.676 42.1207 18.5274 42.1561 18.3791C42.8762 15.3431 44.2172 7.10069 41.8042 5.44089C39.4509 3.82252 34.6476 7.91104 32.995 9.62294C32.8394 9.78429 32.6 9.83191 32.3946 9.74291C28.1696 7.9095 24.674 8.26707 24.6392 8.27072C24.615 8.27332 24.5897 8.27436 24.565 8.27358C24.5312 8.27332 21.0171 8.21164 16.962 10.3943C16.7645 10.5005 16.5222 10.4729 16.3535 10.3256C14.5628 8.75867 9.4315 5.08967 7.22334 6.90067C4.95871 8.75789 6.98959 16.8579 7.96321 19.8224C8.00954 19.9634 7.9947 20.1146 7.92746 20.2416ZM24.0117 43.3028C19.4926 43.3028 15.5962 42.5777 12.4093 41.1407C9.52816 39.8413 7.27232 37.9959 5.70446 35.6558C4.17603 33.3748 3.64186 30.516 4.23893 27.8129C4.87702 24.9244 5.7638 22.2798 6.87569 19.9494C6.65448 19.2462 5.94321 16.8861 5.49546 14.2651C4.76603 9.99483 5.11806 7.23755 6.542 6.0699C9.55986 3.59455 15.4068 8.14008 16.778 9.27682C20.7774 7.21811 24.1439 7.19331 24.5572 7.19893C24.9686 7.15865 28.3247 6.89942 32.4839 8.61398C33.7542 7.36562 39.1974 2.34416 42.4132 4.55544C43.9304 5.59909 44.5136 8.31704 44.1464 12.6337C43.9213 15.2827 43.4115 17.6941 43.2504 18.4137C44.5547 20.6427 45.6613 23.2029 46.5404 26.0271C47.3633 28.6704 47.0718 31.564 45.7412 33.9658C44.3762 36.4298 42.2839 38.4586 39.5224 39.9961C36.012 41.9506 31.4882 43.047 26.0773 43.2544C25.3751 43.2866 24.6863 43.3028 24.0117 43.3028Z" fill="#000072"/>
<path fill-rule="evenodd" clip-rule="evenodd" d="M26.9018 19.124C26.9325 19.8495 28.0146 20.3929 29.3184 20.3377C30.6225 20.2828 31.6549 19.6502 31.6241 18.9246C31.5934 18.1993 30.5116 17.6559 29.2075 17.7109C27.9035 17.766 26.8713 18.3987 26.9018 19.124Z" fill="#FAFBFB"/>
<path fill-rule="evenodd" clip-rule="evenodd" d="M16.3707 19.9269C16.4012 20.6525 15.3691 21.2852 14.065 21.3401C12.7609 21.3952 11.679 20.8518 11.6484 20.1263C11.6177 19.401 12.65 18.7683 13.9541 18.7132C15.2579 18.6583 16.34 19.2016 16.3707 19.9269Z" fill="#FAFBFB"/>
<path fill-rule="evenodd" clip-rule="evenodd" d="M7.45197 20.5273C7.36913 20.5273 7.28507 20.5081 7.20632 20.4675C6.94259 20.3316 6.83891 20.0076 6.97481 19.744C10.8053 12.3091 16.2395 9.55341 16.4688 9.43969C16.7348 9.30852 17.0572 9.41705 17.1889 9.68275C17.3203 9.9482 17.2118 10.2704 16.9464 10.4023C16.8933 10.4289 11.5894 13.1333 7.93001 20.2359C7.8347 20.4211 7.64671 20.5273 7.45197 20.5273Z" fill="#000072"/>
<path fill-rule="evenodd" clip-rule="evenodd" d="M23.7985 31.6017C23.9091 34.2202 22.8941 36.3894 21.5315 36.4469C20.1689 36.5044 18.9746 34.4284 18.864 31.8101L23.7985 31.6017Z" fill="#FF6C6C"/>
<path fill-rule="evenodd" clip-rule="evenodd" d="M21.4757 36.5086C20.8139 36.5086 20.1771 36.0326 19.6761 35.1621C19.1676 34.2781 18.8577 33.0885 18.8038 31.8128C18.8025 31.7795 18.8283 31.7514 18.8616 31.7498C18.8957 31.7514 18.923 31.7743 18.9243 31.8076C18.9774 33.0646 19.2816 34.2344 19.7805 35.102C20.2726 35.9574 20.8954 36.4128 21.5291 36.3868C22.8563 36.3306 23.8476 34.1852 23.7385 31.6043C23.7372 31.571 23.763 31.5429 23.7963 31.5416C23.8301 31.5442 23.8577 31.5658 23.859 31.5991C23.9707 34.2466 22.9279 36.4485 21.534 36.5073C21.5148 36.5081 21.4952 36.5086 21.4757 36.5086Z" fill="#000072"/>
<path fill-rule="evenodd" clip-rule="evenodd" d="M23.8046 32.1946C23.7859 33.0552 23.6435 33.8505 23.4088 34.5141C23.0054 35.6592 22.3282 36.4136 21.5314 36.4475C20.7345 36.481 19.9949 35.7849 19.4976 34.6755C19.2079 34.035 19.0005 33.2558 18.9092 32.4012L23.8046 32.1946Z" fill="#ED2E7A"/>
<path fill-rule="evenodd" clip-rule="evenodd" d="M18.9855 32.4664C19.0776 33.2656 19.2756 34.0183 19.5601 34.647C20.0673 35.7791 20.7843 36.4107 21.5286 36.3789C22.271 36.3474 22.9328 35.6594 23.3443 34.4914C23.5756 33.8369 23.7102 33.0689 23.7344 32.2658L18.9855 32.4664ZM21.4755 36.5169C20.6945 36.5169 19.9536 35.86 19.4352 34.7032C19.1364 34.0425 18.9311 33.249 18.8413 32.4084L18.8335 32.3358L23.8747 32.1229L23.8731 32.1958C23.8546 33.0398 23.7164 33.8491 23.4734 34.5369C23.0424 35.7606 22.3356 36.4817 21.5343 36.5156C21.5148 36.5166 21.495 36.5169 21.4755 36.5169Z" fill="#000072"/>
<path fill-rule="evenodd" clip-rule="evenodd" d="M21.2522 34.7042L20.9352 31.9941C20.9089 31.7692 21.0697 31.5657 21.2946 31.5394C21.5194 31.5131 21.7229 31.674 21.7492 31.8988C21.7516 31.9186 21.7523 31.9405 21.7518 31.9597L21.6641 34.6868C21.6605 34.8011 21.565 34.8906 21.451 34.8869C21.3471 34.8836 21.2639 34.8042 21.2522 34.7042Z" fill="#000072"/>
<path fill-rule="evenodd" clip-rule="evenodd" d="M21.4552 36.8572C20.694 36.8572 19.9744 36.4648 19.4198 35.7439C18.8749 35.0358 18.5511 34.0846 18.5082 33.0658C18.4986 32.8401 18.6737 32.6496 18.8993 32.64C19.1234 32.6322 19.3152 32.8058 19.3248 33.0312C19.3607 33.8835 19.6246 34.6696 20.0676 35.2456C20.4782 35.7791 20.9922 36.0591 21.5145 36.0385C22.6497 35.9906 23.5147 34.5635 23.4427 32.8573C23.4333 32.6319 23.6082 32.4415 23.8338 32.4318C24.0568 32.4232 24.2499 32.5973 24.2593 32.8227C24.3504 34.9793 23.1345 36.7883 21.5489 36.8552C21.5176 36.8565 21.4861 36.8572 21.4552 36.8572Z" fill="#000072"/>
<path fill-rule="evenodd" clip-rule="evenodd" d="M18.7375 34.4047C17.6013 34.1229 16.7992 32.8159 16.6348 31.6639L17.0444 31.6449C17.1719 32.226 17.4407 32.6801 17.8301 32.9679C18.0315 33.1168 18.2639 33.2204 18.521 33.2771C18.5528 33.6685 18.6259 34.0477 18.7375 34.4047ZM24.1407 34.1755C24.2227 33.8122 24.2656 33.426 24.264 33.026C24.5027 32.9474 24.715 32.8282 24.8954 32.6697C25.2665 32.3436 25.4981 31.8551 25.5715 31.2482L25.9798 31.2292C25.9127 32.3975 25.3068 33.7934 24.1407 34.1755Z" fill="#AFAFD2"/>
<path fill-rule="evenodd" clip-rule="evenodd" d="M19.6063 34.4156C19.4736 34.0744 19.3846 33.7005 19.3445 33.3083C19.3807 33.3039 19.4168 33.2989 19.4533 33.2932C20.2316 33.1706 20.6946 32.7878 20.97 32.3826L20.9804 32.3821L21.1152 33.5337C20.8651 33.8488 20.3998 34.2603 19.6063 34.4156ZM23.2788 34.2665C22.4859 34.1994 21.9854 33.8446 21.7005 33.5498L21.7382 32.3761C22.0479 32.7467 22.5369 33.0751 23.3054 33.1305C23.353 33.1339 23.3998 33.1363 23.4462 33.1373C23.4391 33.5383 23.3801 33.9199 23.2788 34.2665Z" fill="#A52078"/>
<path fill-rule="evenodd" clip-rule="evenodd" d="M20.97 32.3834C20.973 32.3787 20.9763 32.3741 20.9793 32.3694L20.981 32.3829L20.97 32.3834Z" fill="#000072"/>
<path fill-rule="evenodd" clip-rule="evenodd" d="M21.7004 33.5499C21.4823 33.3238 21.3905 33.1328 21.3905 33.1328L21.3616 33.1338C21.3616 33.1338 21.2929 33.3095 21.1151 33.5338L20.9803 32.3822L20.9788 32.3695C21.1604 32.0975 21.2585 31.8167 21.3111 31.5986C21.3855 31.8222 21.5156 32.11 21.7381 32.3762L21.7004 33.5499Z" fill="#000072"/>
<path fill-rule="evenodd" clip-rule="evenodd" d="M19.1893 34.4599C19.0337 34.4599 18.883 34.4407 18.7375 34.4048C18.6259 34.0477 18.5527 33.6685 18.521 33.2771C18.6764 33.3117 18.8406 33.3289 19.0123 33.3289C19.1203 33.3289 19.2309 33.3222 19.3444 33.3084C19.3845 33.7006 19.4735 34.0745 19.6062 34.4157C19.5698 34.423 19.5323 34.4295 19.4946 34.4357C19.391 34.4521 19.2892 34.4599 19.1893 34.4599ZM23.495 34.2765C23.4508 34.2765 23.406 34.2752 23.3605 34.2723C23.3329 34.2707 23.3056 34.2689 23.2788 34.2666C23.38 33.9199 23.4391 33.5384 23.4461 33.1374C23.4706 33.1382 23.4948 33.1384 23.519 33.1384C23.7878 33.1384 24.0376 33.1004 24.264 33.026C24.2656 33.426 24.2227 33.8122 24.1407 34.1755C23.9419 34.2408 23.7266 34.2762 23.495 34.2765Z" fill="#000072"/>
<path fill-rule="evenodd" clip-rule="evenodd" d="M25.5305 31.0292C25.4498 32.4347 24.5905 33.1626 23.3099 33.0705C21.8478 32.9651 21.4252 31.831 21.3177 31.4065L21.2888 31.4076C21.2172 31.8398 20.8919 33.0055 19.4439 33.2337C18.1755 33.4336 17.2579 32.7806 17.0591 31.3867L25.5305 31.0292Z" fill="white"/>
<path fill-rule="evenodd" clip-rule="evenodd" d="M19.0124 33.329C18.5564 33.329 18.1533 33.207 17.8301 32.9681C17.3866 32.6404 17.0993 32.0965 16.9994 31.3954C16.9947 31.3624 17.0176 31.3317 17.0504 31.327C17.084 31.3231 17.1139 31.3454 17.1186 31.3782C17.2141 32.0468 17.4847 32.5629 17.9016 32.871C18.299 33.1645 18.8294 33.2694 19.4345 33.1742C20.8255 32.955 21.1529 31.8589 21.2291 31.398C21.2338 31.3696 21.2575 31.3488 21.2858 31.3475L21.315 31.3462C21.3428 31.3465 21.3691 31.3639 21.3762 31.3915C21.4907 31.8448 21.9094 32.9092 23.3142 33.0105C23.925 33.0537 24.4444 32.9053 24.8158 32.5793C25.2051 32.237 25.4315 31.6999 25.4703 31.0259C25.4721 30.9926 25.5005 30.9702 25.5338 30.9689C25.5671 30.971 25.5926 30.9996 25.5905 31.0326C25.5499 31.7397 25.3095 32.306 24.8954 32.6698C24.4993 33.0178 23.9497 33.1765 23.3053 33.1307C21.9841 33.0355 21.4891 32.1329 21.3111 31.5987C21.1789 32.1459 20.7617 33.0872 19.4532 33.2934C19.3018 33.317 19.1545 33.329 19.0124 33.329Z" fill="#000072"/>
<path fill-rule="evenodd" clip-rule="evenodd" d="M19.0129 33.2083C18.5827 33.2083 18.2038 33.0943 17.9017 32.871C17.4861 32.5639 17.2157 32.0499 17.1194 31.3842L17.4358 31.371C17.7846 31.8571 18.3126 32.1103 18.9593 32.1103C19.0991 32.1103 19.2443 32.0986 19.3944 32.0747C20.1273 31.9599 20.572 31.6049 20.8422 31.227L21.0941 31.2164L21.7478 31.1888C22.0492 31.5425 22.522 31.8587 23.2609 31.9115C23.334 31.917 23.4058 31.9196 23.4761 31.9196C24.2277 31.9196 24.8135 31.6166 25.1544 31.0451L25.4701 31.0319C25.4302 31.703 25.2041 32.2381 24.8158 32.5793C24.4866 32.8684 24.0408 33.0178 23.518 33.0178C23.4514 33.0178 23.3832 33.0154 23.3142 33.0105C21.9094 32.9093 21.4907 31.8449 21.3762 31.3915C21.3691 31.3639 21.3429 31.3465 21.315 31.3462L21.2859 31.3475C21.2575 31.3488 21.2338 31.3697 21.2291 31.398C21.1529 31.8589 20.8255 32.9551 19.4345 33.1742C19.2893 33.1971 19.1485 33.2083 19.0129 33.2083Z" fill="#B2B2D4"/>
<path fill-rule="evenodd" clip-rule="evenodd" d="M19.0083 33.2688C17.9683 33.2688 17.2342 32.6156 17.0596 31.3867L17.1194 31.3841C17.2157 32.0498 17.4861 32.5638 17.9017 32.8709C18.2039 33.0942 18.5828 33.2082 19.013 33.2082C19.1485 33.2082 19.2893 33.197 19.4345 33.1741C20.8255 32.955 21.1529 31.8588 21.2292 31.3979C21.2339 31.3696 21.2575 31.3488 21.2859 31.3475L21.3151 31.3462C21.3429 31.3464 21.3692 31.3638 21.3762 31.3914C21.4907 31.8448 21.9095 32.9092 23.3142 33.0104C23.3832 33.0153 23.4514 33.0177 23.518 33.0177C24.0408 33.0177 24.4866 32.8683 24.8158 32.5792C25.2041 32.238 25.4303 31.7029 25.4701 31.0318L25.5305 31.0292C25.454 32.3549 24.6862 33.0781 23.5243 33.0781C23.4543 33.0781 23.3827 33.0755 23.3098 33.07C21.8478 32.9651 21.4259 31.8312 21.3174 31.4065L21.2885 31.4078C21.2175 31.8401 20.8924 33.0055 19.4431 33.2334C19.2932 33.2571 19.148 33.2688 19.0083 33.2688Z" fill="#000072"/>
<path fill-rule="evenodd" clip-rule="evenodd" d="M19.0113 33.6774C18.4809 33.6777 18.0075 33.5322 17.6231 33.2483C17.1029 32.8639 16.7682 32.2401 16.6545 31.4446C16.6228 31.221 16.7779 31.0141 17.0014 30.9821C17.2252 30.9501 17.4319 31.1055 17.4639 31.329C17.5456 31.9031 17.7689 32.3395 18.109 32.5907C18.4296 32.8278 18.8692 32.9102 19.3803 32.8301C20.5051 32.6529 20.8062 31.8211 20.8855 31.341C20.917 31.1505 21.0779 31.0079 21.271 30.9995L21.2998 30.9982C21.4919 30.9891 21.6663 31.1182 21.7139 31.3061C21.8333 31.7777 22.2037 32.581 23.3394 32.663C23.8549 32.7002 24.2864 32.5805 24.5862 32.3174C24.9039 32.0382 25.0892 31.5848 25.1226 31.0058C25.1356 30.7804 25.3292 30.6061 25.554 30.6212C25.7794 30.6342 25.9517 30.8273 25.9387 31.0526C25.8926 31.855 25.6113 32.5048 25.1254 32.9313C24.6578 33.3425 24.0196 33.5312 23.2806 33.4784C22.2802 33.4063 21.6897 32.9168 21.3464 32.4293C21.0456 32.9441 20.4983 33.4815 19.5076 33.6374C19.3376 33.6642 19.1718 33.6774 19.0113 33.6774Z" fill="#000072"/>
<path fill-rule="evenodd" clip-rule="evenodd" d="M21.299 31.7205C21.0812 31.7205 20.9 31.5485 20.8909 31.3291L20.8053 29.3002C20.7957 29.0746 20.9708 28.8841 21.1962 28.8747C21.42 28.8654 21.6123 29.0403 21.622 29.2656L21.7076 31.2945C21.7169 31.5201 21.5421 31.7106 21.3164 31.72C21.3104 31.7202 21.3047 31.7205 21.299 31.7205Z" fill="#000072"/>
<path fill-rule="evenodd" clip-rule="evenodd" d="M23.7953 28.7885C23.8309 29.634 22.6702 30.8194 21.1796 30.8824C19.6886 30.9454 18.4322 29.862 18.3965 29.0162C18.3609 28.1707 19.5663 28.0484 21.0572 27.9854C22.5479 27.9227 23.7596 27.9427 23.7953 28.7885Z" fill="#000072"/>
<path fill-rule="evenodd" clip-rule="evenodd" d="M22.2527 28.6108C22.2605 28.7963 21.7466 29.0672 21.0993 29.0946C20.4524 29.1219 19.9173 28.8952 19.9095 28.7099C19.9017 28.5244 20.4256 28.4866 21.0725 28.4593C21.7198 28.432 22.2449 28.4255 22.2527 28.6108Z" fill="white"/>
<path fill-rule="evenodd" clip-rule="evenodd" d="M21.5923 28.4999C21.4049 28.4999 21.2121 28.5082 21.0749 28.514C20.7254 28.5285 20.4521 28.5455 20.2546 28.579C19.9894 28.6246 19.9631 28.6842 19.9642 28.7076C19.9665 28.7615 20.0672 28.8538 20.283 28.9304C20.5169 29.0134 20.8061 29.0529 21.0973 29.0399C21.7424 29.0129 22.2036 28.7432 22.1981 28.6131C22.1942 28.522 21.9009 28.4999 21.5923 28.4999ZM20.9919 29.1516C20.7249 29.1516 20.4636 29.1104 20.2466 29.0337C20.0027 28.947 19.8598 28.8299 19.8549 28.7123C19.8481 28.5559 20.0693 28.4999 20.2364 28.4713C20.4394 28.4367 20.7166 28.4195 21.0705 28.4047C21.8109 28.3732 22.2973 28.3706 22.3074 28.6087C22.3181 28.8598 21.732 29.1227 21.1017 29.1492C21.0653 29.1508 21.0286 29.1516 20.9919 29.1516Z" fill="#000072"/>
<path fill-rule="evenodd" clip-rule="evenodd" d="M7.59207 18.6082C7.17217 17.1438 6.69322 15.166 6.41846 13.235C6.97358 13.4237 7.54528 13.5059 8.1199 13.5059C8.29174 13.5059 8.46389 13.4986 8.63583 13.4846C8.80811 14.5133 9.06567 15.4887 9.23298 16.0703C8.67453 16.8386 8.12242 17.6825 7.59207 18.6082Z" fill="#EEEEEE"/>
<path fill-rule="evenodd" clip-rule="evenodd" d="M9.23314 16.0705C9.06583 15.4888 8.80827 14.5135 8.63599 13.4847C10.136 13.3624 11.6272 12.7318 12.8659 12.0292C11.7429 13.035 10.4734 14.3643 9.23314 16.0705Z" fill="#F1F1F1"/>
<path fill-rule="evenodd" clip-rule="evenodd" d="M7.49259 18.7835L5.89355 13.0215C6.06656 13.104 6.24168 13.175 6.41852 13.2351C6.69328 15.1661 7.17223 17.144 7.59213 18.6084C7.55908 18.6661 7.52546 18.7252 7.49259 18.7835Z" fill="#000072"/>
<path fill-rule="evenodd" clip-rule="evenodd" d="M7.69824 19.5242L7.49268 18.7836C7.52554 18.7253 7.55917 18.6662 7.59222 18.6084C8.12257 17.6827 8.67467 16.8388 9.23313 16.0705C10.4734 14.3644 11.7429 13.0351 12.8659 12.0292C14.6548 11.0145 15.9172 9.84995 15.9172 9.84995L17.1148 9.70837C12.3815 12.0279 7.69824 19.5242 7.69824 19.5242Z" fill="#000072"/>
<ellipse cx="16.2064" cy="23.609" rx="1.30916" ry="1.30916" fill="#000072"/>
<ellipse cx="26.3188" cy="23.7087" rx="1.22188" ry="1.30916" fill="#000072"/>
</g>
<defs>
<filter id="filter0_d" x="0" y="0" width="51" height="47.3028" filterUnits="userSpaceOnUse" color-interpolation-filters="sRGB">
<feFlood flood-opacity="0" result="BackgroundImageFix"/>
<feColorMatrix in="SourceAlpha" type="matrix" values="0 0 0 0 0 0 0 0 0 0 0 0 0 0 0 0 0 0 127 0"/>
<feOffset/>
<feGaussianBlur stdDeviation="2"/>
<feColorMatrix type="matrix" values="0 0 0 0 0 0 0 0 0 0 0 0 0 0 0 0 0 0 0.25 0"/>
<feBlend mode="normal" in2="BackgroundImageFix" result="effect1_dropShadow"/>
<feBlend mode="normal" in="SourceGraphic" in2="effect1_dropShadow" result="shape"/>
</filter>
</defs>
</svg>
