<svg width="44" height="44" viewBox="0 0 44 44" fill="none" xmlns="http://www.w3.org/2000/svg">
<path d="M22.0034 20.2781L6.875 28.883L22.0034 37.4878L37.1317 28.883L22.0034 20.2781Z" fill="#150939" fill-opacity="0.5"/>
<path d="M22.0034 5.5L6.875 14.1049L22.0034 22.7098L37.1317 14.1049L22.0034 5.5Z" fill="url(#paint0_linear)"/>
<path d="M22.0034 22.6795V37.374L6.875 28.8407V14.1039L22.0034 22.6795Z" fill="url(#paint1_linear)"/>
<path d="M22.0037 22.6498V37.3792L37.132 28.8406V14.1039L22.0037 22.6498Z" fill="url(#paint2_linear)"/>
<g filter="url(#filter0_f)">
<path d="M12.4213 11.7797L17.9164 8.65906" stroke="white" stroke-opacity="0.2" stroke-width="0.0698542"/>
</g>
<g filter="url(#filter1_f)">
<path d="M14.6165 18.4253L9.18927 15.3046" stroke="#302A2A" stroke-opacity="0.2" stroke-width="0.0698542"/>
</g>
<mask id="mask0" mask-type="alpha" maskUnits="userSpaceOnUse" x="6" y="5" width="32" height="18">
<path d="M22.0034 5.5L6.875 14.1049L22.0034 22.7098L37.1317 14.1049L22.0034 5.5Z" fill="#6836F8"/>
</mask>
<g mask="url(#mask0)">
<g filter="url(#filter2_f)">
<path d="M13.3877 9.50264C14.5117 9.50264 15.4229 8.95592 15.4229 8.28152C15.4229 7.60711 14.5117 7.06039 13.3877 7.06039C12.2637 7.06039 11.3525 7.60711 11.3525 8.28152C11.3525 8.95592 12.2637 9.50264 13.3877 9.50264Z" fill="#FF83A9" fill-opacity="0.5"/>
</g>
<g filter="url(#filter3_f)">
<path d="M22.0034 20.7593L6.875 29.3642L22.0034 37.9691L37.1317 29.3642L22.0034 20.7593Z" fill="#150939" fill-opacity="0.5"/>
<path d="M22.0034 5.98123L6.875 14.5861L22.0034 23.191L37.1317 14.5861L22.0034 5.98123Z" fill="url(#paint3_linear)"/>
<path d="M22.0034 23.1607V37.8552L6.875 29.322V14.5851L22.0034 23.1607Z" fill="url(#paint4_linear)"/>
<path d="M22.0037 23.131V37.8605L37.132 29.3218V14.5851L22.0037 23.131Z" fill="url(#paint5_linear)"/>
<g filter="url(#filter4_f)">
<path d="M12.4213 12.2609L17.9164 9.14029" stroke="white" stroke-opacity="0.2" stroke-width="0.0698542"/>
</g>
<g filter="url(#filter5_f)">
<path d="M14.6165 18.9065L9.18927 15.7858" stroke="#302A2A" stroke-opacity="0.2" stroke-width="0.0698542"/>
</g>
<mask id="mask1" mask-type="alpha" maskUnits="userSpaceOnUse" x="6" y="5" width="32" height="19">
<path d="M22.0034 5.98123L6.875 14.5861L22.0034 23.191L37.1317 14.5861L22.0034 5.98123Z" fill="#6836F8"/>
</mask>
<g mask="url(#mask1)">
<g filter="url(#filter6_f)">
<path d="M13.3877 9.98387C14.5117 9.98387 15.4229 9.43715 15.4229 8.76275C15.4229 8.08834 14.5117 7.54163 13.3877 7.54163C12.2637 7.54163 11.3525 8.08834 11.3525 8.76275C11.3525 9.43715 12.2637 9.98387 13.3877 9.98387Z" fill="#FF83A9" fill-opacity="0.5"/>
</g>
</g>
</g>
</g>
<defs>
<filter id="filter0_f" x="11.8452" y="8.06986" width="6.64722" height="4.29905" filterUnits="userSpaceOnUse" color-interpolation-filters="sRGB">
<feFlood flood-opacity="0" result="BackgroundImageFix"/>
<feBlend mode="normal" in="SourceGraphic" in2="BackgroundImageFix" result="shape"/>
<feGaussianBlur stdDeviation="0.279416" result="effect1_foregroundBlur"/>
</filter>
<filter id="filter1_f" x="8.61304" y="14.7155" width="6.57975" height="4.29892" filterUnits="userSpaceOnUse" color-interpolation-filters="sRGB">
<feFlood flood-opacity="0" result="BackgroundImageFix"/>
<feBlend mode="normal" in="SourceGraphic" in2="BackgroundImageFix" result="shape"/>
<feGaussianBlur stdDeviation="0.279416" result="effect1_foregroundBlur"/>
</filter>
<filter id="filter2_f" x="4.36708" y="0.0749927" width="18.0412" height="16.413" filterUnits="userSpaceOnUse" color-interpolation-filters="sRGB">
<feFlood flood-opacity="0" result="BackgroundImageFix"/>
<feBlend mode="normal" in="SourceGraphic" in2="BackgroundImageFix" result="shape"/>
<feGaussianBlur stdDeviation="3.4927" result="effect1_foregroundBlur"/>
</filter>
<filter id="filter3_f" x="4.86545" y="3.97168" width="34.2761" height="36.0069" filterUnits="userSpaceOnUse" color-interpolation-filters="sRGB">
<feFlood flood-opacity="0" result="BackgroundImageFix"/>
<feBlend mode="normal" in="SourceGraphic" in2="BackgroundImageFix" result="shape"/>
<feGaussianBlur stdDeviation="1.00477" result="effect1_foregroundBlur"/>
</filter>
<filter id="filter4_f" x="11.8452" y="8.55109" width="6.64722" height="4.29905" filterUnits="userSpaceOnUse" color-interpolation-filters="sRGB">
<feFlood flood-opacity="0" result="BackgroundImageFix"/>
<feBlend mode="normal" in="SourceGraphic" in2="BackgroundImageFix" result="shape"/>
<feGaussianBlur stdDeviation="0.279416" result="effect1_foregroundBlur"/>
</filter>
<filter id="filter5_f" x="8.61304" y="15.1967" width="6.57975" height="4.29892" filterUnits="userSpaceOnUse" color-interpolation-filters="sRGB">
<feFlood flood-opacity="0" result="BackgroundImageFix"/>
<feBlend mode="normal" in="SourceGraphic" in2="BackgroundImageFix" result="shape"/>
<feGaussianBlur stdDeviation="0.279416" result="effect1_foregroundBlur"/>
</filter>
<filter id="filter6_f" x="4.36708" y="0.556224" width="18.0412" height="16.413" filterUnits="userSpaceOnUse" color-interpolation-filters="sRGB">
<feFlood flood-opacity="0" result="BackgroundImageFix"/>
<feBlend mode="normal" in="SourceGraphic" in2="BackgroundImageFix" result="shape"/>
<feGaussianBlur stdDeviation="3.4927" result="effect1_foregroundBlur"/>
</filter>
<linearGradient id="paint0_linear" x1="22.0034" y1="5.5" x2="22.0034" y2="22.7098" gradientUnits="userSpaceOnUse">
<stop stop-color="#FF64AE" stop-opacity="0.17"/>
<stop offset="1" stop-color="#FF64AE"/>
</linearGradient>
<linearGradient id="paint1_linear" x1="7.71012" y1="14.7363" x2="19.7791" y2="37.1349" gradientUnits="userSpaceOnUse">
<stop stop-color="#FF64AE" stop-opacity="0.26"/>
<stop offset="1" stop-color="#FF64AE"/>
</linearGradient>
<linearGradient id="paint2_linear" x1="29.5163" y1="18.8001" x2="29.5163" y2="33.3935" gradientUnits="userSpaceOnUse">
<stop stop-color="#FF83A9" stop-opacity="0.22"/>
<stop offset="1" stop-color="#FF64AE"/>
</linearGradient>
<linearGradient id="paint3_linear" x1="22.0034" y1="5.98123" x2="22.0034" y2="23.191" gradientUnits="userSpaceOnUse">
<stop stop-color="#CFFC50" stop-opacity="0.17"/>
<stop offset="1" stop-color="#E450FC"/>
</linearGradient>
<linearGradient id="paint4_linear" x1="7.71012" y1="15.2175" x2="19.7791" y2="37.6161" gradientUnits="userSpaceOnUse">
<stop stop-color="#572BD8" stop-opacity="0.26"/>
<stop offset="1" stop-color="#991FC4"/>
</linearGradient>
<linearGradient id="paint5_linear" x1="29.5163" y1="19.2813" x2="29.5163" y2="33.8747" gradientUnits="userSpaceOnUse">
<stop stop-color="#FF83A9" stop-opacity="0.22"/>
<stop offset="1" stop-color="#D52DCE"/>
</linearGradient>
</defs>
</svg>
